<?xml version="1.0" encoding="UTF-8" standalone="no"?>
<!-- Created with Inkscape (http://www.inkscape.org/) -->

<svg
   xmlns:dc="http://purl.org/dc/elements/1.1/"
   xmlns:cc="http://creativecommons.org/ns#"
   xmlns:rdf="http://www.w3.org/1999/02/22-rdf-syntax-ns#"
   xmlns:svg="http://www.w3.org/2000/svg"
   xmlns="http://www.w3.org/2000/svg"
   xmlns:sodipodi="http://sodipodi.sourceforge.net/DTD/sodipodi-0.dtd"
   xmlns:inkscape="http://www.inkscape.org/namespaces/inkscape"
   width="210mm"
   height="297mm"
   id="svg2"
   version="1.1"
   inkscape:version="0.48.5 r10040"
   sodipodi:docname="caramelo.svg">
  <defs
     id="defs4" />
  <sodipodi:namedview
     id="base"
     pagecolor="#ffffff"
     bordercolor="#666666"
     borderopacity="1.0"
     inkscape:pageopacity="0.0"
     inkscape:pageshadow="2"
     inkscape:zoom="0.98994949"
     inkscape:cx="122.31775"
     inkscape:cy="563.24364"
     inkscape:document-units="px"
     inkscape:current-layer="layer1"
     showgrid="false"
     inkscape:window-width="1680"
     inkscape:window-height="994"
     inkscape:window-x="-4"
     inkscape:window-y="-4"
     inkscape:window-maximized="1" />
  <metadata
     id="metadata7">
    <rdf:RDF>
      <cc:Work
         rdf:about="">
        <dc:format>image/svg+xml</dc:format>
        <dc:type
           rdf:resource="http://purl.org/dc/dcmitype/StillImage" />
        <dc:title></dc:title>
      </cc:Work>
    </rdf:RDF>
  </metadata>
  <g
     inkscape:label="Capa 1"
     inkscape:groupmode="layer"
     id="layer1">
    <path
       style="color:#000000;fill:#ffd900;fill-opacity:1;fill-rule:nonzero;stroke:#121212;stroke-width:5;stroke-opacity:1;marker:none;visibility:visible;display:inline;overflow:visible;enable-background:accumulate"
       d="m 218.14219,455.2605 c 21.79504,-20.07438 93.89342,24.28571 93.89342,24.28571 l -7.85714,41.01525 c 0,0 -60.0839,42.38096 -81.03628,21.42858 -5.95238,-5.95238 22.14286,-10.40731 22.14286,-18.82524 0,-8.41794 -23.15928,-9.98097 -27.14286,-17.39667 -11.42857,-21.27508 18.57143,-15.40731 18.57143,-23.82525 0,-8.41793 -36.66667,-10.01571 -18.57143,-26.68238 z"
       id="rect3856"
       inkscape:connector-curvature="0"
       sodipodi:nodetypes="sccsssss"
       inkscape:export-filename="C:\gdx\seesawcircus\android\assets\carameloa.png"
       inkscape:export-xdpi="17"
       inkscape:export-ydpi="17" />
    <path
       sodipodi:type="arc"
       style="color:#000000;fill:#ffd900;fill-opacity:1;fill-rule:nonzero;stroke:#000000;stroke-width:4.36408424;stroke-miterlimit:4;stroke-opacity:1;stroke-dasharray:none;marker:none;visibility:visible;display:inline;overflow:visible;enable-background:accumulate"
       id="path3818"
       sodipodi:cx="389.41382"
       sodipodi:cy="517.48639"
       sodipodi:rx="80.307129"
       sodipodi:ry="80.307129"
       d="m 469.72095,517.48639 a 80.307129,80.307129 0 1 1 -160.61426,0 80.307129,80.307129 0 1 1 160.61426,0 z"
       transform="matrix(1.2823007,0,0,1.023679,-90.118154,-29.869443)"
       inkscape:export-filename="C:\gdx\seesawcircus\android\assets\carameloa.png"
       inkscape:export-xdpi="17"
       inkscape:export-ydpi="17" />
    <path
       style="color:#000000;fill:#610a2f;fill-opacity:0.40106955;fill-rule:nonzero;stroke:none;stroke-width:3;marker:none;visibility:visible;display:inline;overflow:visible;enable-background:accumulate"
       d="m 508.29297,471.27863 c 15.93466,73.24593 -38.72499,110.2392 -95.5981,110.2392 -56.87311,0 -77.51343,-19.26362 -94.43125,-44.93778 -24.10613,-36.58307 59.86112,34.47559 114.52592,17.92792 70.04942,-21.20478 65.94005,-127.18878 75.50343,-83.22934 z"
       id="path3834"
       inkscape:connector-curvature="0"
       sodipodi:nodetypes="sssss"
       inkscape:export-filename="C:\gdx\seesawcircus\android\assets\carameloa.png"
       inkscape:export-xdpi="17"
       inkscape:export-ydpi="17" />
    <path
       sodipodi:nodetypes="sssss"
       inkscape:connector-curvature="0"
       id="path3842"
       d="m 414.5435,473.48436 c 0.0704,5.88643 -17.51087,16.92928 -28.84167,16.92928 -11.3308,0 -20.51623,-4.77228 -20.51623,-10.65916 0,-5.88692 8.26427,-9.95636 19.32687,-12.54022 9.27598,-2.16656 29.95977,0.30808 30.03103,6.2701 z"
       style="color:#000000;fill:#fffcfc;fill-opacity:0.40106955;fill-rule:nonzero;stroke:none;stroke-width:3;marker:none;visibility:visible;display:inline;overflow:visible;enable-background:accumulate"
       inkscape:export-filename="C:\gdx\seesawcircus\android\assets\carameloa.png"
       inkscape:export-xdpi="17"
       inkscape:export-ydpi="17" />
    <path
       sodipodi:nodetypes="sssss"
       inkscape:connector-curvature="0"
       id="path3844"
       d="m 318.5193,464.90372 c 20.54547,-22.91686 23.04507,-27.33354 39.87197,-34.15795 15.32305,-6.21452 39.3781,-14.17053 45.40615,-7.53046 3.54375,3.90354 -19.05687,14.4157 -40.48266,24.70787 -51.67233,24.8215 -57.15219,30.76352 -44.79546,16.98054 z"
       style="color:#000000;fill:#fbf1cb;fill-opacity:0.40106955;fill-rule:nonzero;stroke:none;stroke-width:4;marker:none;visibility:visible;display:inline;overflow:visible;enable-background:accumulate"
       inkscape:export-filename="C:\gdx\seesawcircus\android\assets\carameloa.png"
       inkscape:export-xdpi="17"
       inkscape:export-ydpi="17" />
    <path
       sodipodi:nodetypes="cccc"
       inkscape:connector-curvature="0"
       id="path3861"
       d="m 303.16831,509.96463 1.01016,10.59683 c 0,0 -60.0839,42.38096 -81.03628,21.42858 38.35164,-16.42951 49.44195,-6.13299 80.02612,-32.02541 z"
       style="color:#000000;fill:#5d186c;fill-opacity:0.4278075;fill-rule:nonzero;stroke:none;stroke-width:5;marker:none;visibility:visible;display:inline;overflow:visible;enable-background:accumulate"
       inkscape:export-filename="C:\gdx\seesawcircus\android\assets\carameloa.png"
       inkscape:export-xdpi="17"
       inkscape:export-ydpi="17" />
    <path
       style="color:#000000;fill:#5d186c;fill-opacity:0.4278075;fill-rule:nonzero;stroke:none;stroke-width:5;marker:none;visibility:visible;display:inline;overflow:visible;enable-background:accumulate"
       d="m 254.08392,510.97122 -8.91973,4.97479 c 0,0 -30.2735,-5.63849 -28.10007,-20.5911 12.6387,6.88572 19.9555,3.78396 37.0198,15.61631 z"
       id="path3863"
       inkscape:connector-curvature="0"
       sodipodi:nodetypes="cccc"
       inkscape:export-filename="C:\gdx\seesawcircus\android\assets\carameloa.png"
       inkscape:export-xdpi="17"
       inkscape:export-ydpi="17" />
    <path
       sodipodi:nodetypes="cccc"
       inkscape:connector-curvature="0"
       id="path3865"
       d="m 242.21463,473.34303 -1.84866,9.0154 c 0,0 -27.74812,-10.43671 -25.57469,-25.38932 12.6387,6.88572 10.35905,4.54157 27.42335,16.37392 z"
       style="color:#000000;fill:#5d186c;fill-opacity:0.4278075;fill-rule:nonzero;stroke:none;stroke-width:5;marker:none;visibility:visible;display:inline;overflow:visible;enable-background:accumulate"
       inkscape:export-filename="C:\gdx\seesawcircus\android\assets\carameloa.png"
       inkscape:export-xdpi="17"
       inkscape:export-ydpi="17" />
    <path
       sodipodi:nodetypes="cccc"
       inkscape:connector-curvature="0"
       id="path3867"
       d="m 303.22482,516.78203 -7.32301,-7.11925 c 0,0 -3.27663,-30.61929 11.67148,-32.82353 -2.97361,14.08217 2.09546,20.20271 -4.34847,39.94278 z"
       style="color:#000000;fill:#5d186c;fill-opacity:0.4278075;fill-rule:nonzero;stroke:none;stroke-width:5;marker:none;visibility:visible;display:inline;overflow:visible;enable-background:accumulate"
       inkscape:export-filename="C:\gdx\seesawcircus\android\assets\carameloa.png"
       inkscape:export-xdpi="17"
       inkscape:export-ydpi="17" />
    <path
       sodipodi:nodetypes="sccsssss"
       inkscape:connector-curvature="0"
       id="path3871"
       d="m 601.47746,449.19959 c -21.79504,-20.07438 -93.89342,24.28571 -93.89342,24.28571 l 7.85714,41.01525 c 0,0 60.0839,42.38096 81.03628,21.42858 5.95238,-5.95238 -22.14286,-10.40731 -22.14286,-18.82524 0,-8.41794 23.15928,-9.98097 27.14286,-17.39667 11.42857,-21.27508 -18.57143,-15.40731 -18.57143,-23.82525 0,-8.41793 36.66667,-10.01571 18.57143,-26.68238 z"
       style="color:#000000;fill:#ffd900;fill-opacity:1;fill-rule:nonzero;stroke:#121212;stroke-width:5;stroke-opacity:1;marker:none;visibility:visible;display:inline;overflow:visible;enable-background:accumulate"
       inkscape:export-filename="C:\gdx\seesawcircus\android\assets\carameloa.png"
       inkscape:export-xdpi="17"
       inkscape:export-ydpi="17" />
    <path
       style="color:#000000;fill:#5d186c;fill-opacity:0.4278075;fill-rule:nonzero;stroke:none;stroke-width:5;marker:none;visibility:visible;display:inline;overflow:visible;enable-background:accumulate"
       d="m 516.45134,503.90372 -1.01016,10.59683 c 0,0 60.0839,42.38096 81.03628,21.42858 -38.35164,-16.42951 -49.44195,-6.13299 -80.02612,-32.02541 z"
       id="path3873"
       inkscape:connector-curvature="0"
       sodipodi:nodetypes="cccc"
       inkscape:export-filename="C:\gdx\seesawcircus\android\assets\carameloa.png"
       inkscape:export-xdpi="17"
       inkscape:export-ydpi="17" />
    <path
       sodipodi:nodetypes="cccc"
       inkscape:connector-curvature="0"
       id="path3875"
       d="m 565.53573,504.91031 8.91973,4.97479 c 0,0 30.2735,-5.63849 28.10007,-20.5911 -12.6387,6.88572 -19.9555,3.78396 -37.0198,15.61631 z"
       style="color:#000000;fill:#5d186c;fill-opacity:0.4278075;fill-rule:nonzero;stroke:none;stroke-width:5;marker:none;visibility:visible;display:inline;overflow:visible;enable-background:accumulate"
       inkscape:export-filename="C:\gdx\seesawcircus\android\assets\carameloa.png"
       inkscape:export-xdpi="17"
       inkscape:export-ydpi="17" />
    <path
       style="color:#000000;fill:#5d186c;fill-opacity:0.4278075;fill-rule:nonzero;stroke:none;stroke-width:5;marker:none;visibility:visible;display:inline;overflow:visible;enable-background:accumulate"
       d="m 577.40502,467.28212 1.84866,9.0154 c 0,0 27.74812,-10.43671 25.57469,-25.38932 -12.6387,6.88572 -10.35905,4.54157 -27.42335,16.37392 z"
       id="path3877"
       inkscape:connector-curvature="0"
       sodipodi:nodetypes="cccc"
       inkscape:export-filename="C:\gdx\seesawcircus\android\assets\carameloa.png"
       inkscape:export-xdpi="17"
       inkscape:export-ydpi="17" />
    <path
       style="color:#000000;fill:#5d186c;fill-opacity:0.4278075;fill-rule:nonzero;stroke:none;stroke-width:5;marker:none;visibility:visible;display:inline;overflow:visible;enable-background:accumulate"
       d="m 516.39483,510.72112 7.32301,-7.11925 c 0,0 3.27663,-30.61929 -11.67148,-32.82353 2.97361,14.08217 -2.09546,20.20271 4.34847,39.94278 z"
       id="path3879"
       inkscape:connector-curvature="0"
       sodipodi:nodetypes="cccc"
       inkscape:export-filename="C:\gdx\seesawcircus\android\assets\carameloa.png"
       inkscape:export-xdpi="17"
       inkscape:export-ydpi="17" />
    <path
       inkscape:export-ydpi="17"
       inkscape:export-xdpi="17"
       inkscape:export-filename="C:\gdx\seesawcircus\android\assets\caramelor.png"
       sodipodi:nodetypes="sccsssss"
       inkscape:connector-curvature="0"
       id="path3881"
       d="m 234.30463,665.37223 c 21.79504,-20.07438 93.89342,24.28571 93.89342,24.28571 l -7.85714,41.01525 c 0,0 -60.0839,42.38096 -81.03628,21.42858 -5.95238,-5.95238 22.14286,-10.40731 22.14286,-18.82524 0,-8.41794 -23.15928,-9.98097 -27.14286,-17.39667 -11.42857,-21.27508 18.57143,-15.40731 18.57143,-23.82525 0,-8.41793 -36.66667,-10.01571 -18.57143,-26.68238 z"
       style="color:#000000;fill:#ff0800;fill-opacity:1;fill-rule:nonzero;stroke:#121212;stroke-width:5;stroke-opacity:1;marker:none;visibility:visible;display:inline;overflow:visible;enable-background:accumulate" />
    <path
       inkscape:export-ydpi="17"
       inkscape:export-xdpi="17"
       inkscape:export-filename="C:\gdx\seesawcircus\android\assets\caramelor.png"
       transform="matrix(1.2823007,0,0,1.023679,-73.955713,180.24229)"
       d="m 469.72095,517.48639 a 80.307129,80.307129 0 1 1 -160.61426,0 80.307129,80.307129 0 1 1 160.61426,0 z"
       sodipodi:ry="80.307129"
       sodipodi:rx="80.307129"
       sodipodi:cy="517.48639"
       sodipodi:cx="389.41382"
       id="path3883"
       style="color:#000000;fill:#ff0800;fill-opacity:1;fill-rule:nonzero;stroke:#000000;stroke-width:4.36408424000000040;stroke-miterlimit:4;stroke-opacity:1;stroke-dasharray:none;marker:none;visibility:visible;display:inline;overflow:visible;enable-background:accumulate"
       sodipodi:type="arc" />
    <path
       inkscape:export-ydpi="17"
       inkscape:export-xdpi="17"
       inkscape:export-filename="C:\gdx\seesawcircus\android\assets\caramelor.png"
       sodipodi:nodetypes="sssss"
       inkscape:connector-curvature="0"
       id="path3885"
       d="m 524.45541,681.39036 c 15.93466,73.24593 -38.72499,110.2392 -95.5981,110.2392 -56.87311,0 -77.51343,-19.26362 -94.43125,-44.93778 -24.10613,-36.58307 59.86112,34.47559 114.52592,17.92792 70.04942,-21.20478 65.94005,-127.18878 75.50343,-83.22934 z"
       style="color:#000000;fill:#610a2f;fill-opacity:0.40106955;fill-rule:nonzero;stroke:none;stroke-width:3;marker:none;visibility:visible;display:inline;overflow:visible;enable-background:accumulate" />
    <path
       inkscape:export-ydpi="17"
       inkscape:export-xdpi="17"
       inkscape:export-filename="C:\gdx\seesawcircus\android\assets\caramelor.png"
       style="color:#000000;fill:#fffcfc;fill-opacity:0.40106955;fill-rule:nonzero;stroke:none;stroke-width:3;marker:none;visibility:visible;display:inline;overflow:visible;enable-background:accumulate"
       d="m 430.70594,683.59609 c 0.0704,5.88643 -17.51087,16.92928 -28.84167,16.92928 -11.3308,0 -20.51623,-4.77228 -20.51623,-10.65916 0,-5.88692 8.26427,-9.95636 19.32687,-12.54022 9.27598,-2.16656 29.95977,0.30808 30.03103,6.2701 z"
       id="path3887"
       inkscape:connector-curvature="0"
       sodipodi:nodetypes="sssss" />
    <path
       inkscape:export-ydpi="17"
       inkscape:export-xdpi="17"
       inkscape:export-filename="C:\gdx\seesawcircus\android\assets\caramelor.png"
       style="color:#000000;fill:#fbf1cb;fill-opacity:0.40106955;fill-rule:nonzero;stroke:none;stroke-width:4;marker:none;visibility:visible;display:inline;overflow:visible;enable-background:accumulate"
       d="m 334.68174,675.01545 c 20.54547,-22.91686 23.04507,-27.33354 39.87197,-34.15795 15.32305,-6.21452 39.3781,-14.17053 45.40615,-7.53046 3.54375,3.90354 -19.05687,14.4157 -40.48266,24.70787 -51.67233,24.8215 -57.15219,30.76352 -44.79546,16.98054 z"
       id="path3889"
       inkscape:connector-curvature="0"
       sodipodi:nodetypes="sssss" />
    <path
       inkscape:export-ydpi="17"
       inkscape:export-xdpi="17"
       inkscape:export-filename="C:\gdx\seesawcircus\android\assets\caramelor.png"
       style="color:#000000;fill:#5d186c;fill-opacity:0.4278075;fill-rule:nonzero;stroke:none;stroke-width:5;marker:none;visibility:visible;display:inline;overflow:visible;enable-background:accumulate"
       d="m 319.33075,720.07636 1.01016,10.59683 c 0,0 -60.0839,42.38096 -81.03628,21.42858 38.35164,-16.42951 49.44195,-6.13299 80.02612,-32.02541 z"
       id="path3891"
       inkscape:connector-curvature="0"
       sodipodi:nodetypes="cccc" />
    <path
       inkscape:export-ydpi="17"
       inkscape:export-xdpi="17"
       inkscape:export-filename="C:\gdx\seesawcircus\android\assets\caramelor.png"
       sodipodi:nodetypes="cccc"
       inkscape:connector-curvature="0"
       id="path3893"
       d="m 270.24636,721.08295 -8.91973,4.97479 c 0,0 -30.2735,-5.63849 -28.10007,-20.5911 12.6387,6.88572 19.9555,3.78396 37.0198,15.61631 z"
       style="color:#000000;fill:#5d186c;fill-opacity:0.4278075;fill-rule:nonzero;stroke:none;stroke-width:5;marker:none;visibility:visible;display:inline;overflow:visible;enable-background:accumulate" />
    <path
       inkscape:export-ydpi="17"
       inkscape:export-xdpi="17"
       inkscape:export-filename="C:\gdx\seesawcircus\android\assets\caramelor.png"
       style="color:#000000;fill:#5d186c;fill-opacity:0.4278075;fill-rule:nonzero;stroke:none;stroke-width:5;marker:none;visibility:visible;display:inline;overflow:visible;enable-background:accumulate"
       d="m 258.37707,683.45476 -1.84866,9.0154 c 0,0 -27.74812,-10.43671 -25.57469,-25.38932 12.6387,6.88572 10.35905,4.54157 27.42335,16.37392 z"
       id="path3895"
       inkscape:connector-curvature="0"
       sodipodi:nodetypes="cccc" />
    <path
       inkscape:export-ydpi="17"
       inkscape:export-xdpi="17"
       inkscape:export-filename="C:\gdx\seesawcircus\android\assets\caramelor.png"
       style="color:#000000;fill:#5d186c;fill-opacity:0.4278075;fill-rule:nonzero;stroke:none;stroke-width:5;marker:none;visibility:visible;display:inline;overflow:visible;enable-background:accumulate"
       d="m 319.38726,726.89376 -7.32301,-7.11925 c 0,0 -3.27663,-30.61929 11.67148,-32.82353 -2.97361,14.08217 2.09546,20.20271 -4.34847,39.94278 z"
       id="path3897"
       inkscape:connector-curvature="0"
       sodipodi:nodetypes="cccc" />
    <path
       inkscape:export-ydpi="17"
       inkscape:export-xdpi="17"
       inkscape:export-filename="C:\gdx\seesawcircus\android\assets\caramelor.png"
       style="color:#000000;fill:#ff0800;fill-opacity:1;fill-rule:nonzero;stroke:#121212;stroke-width:5;stroke-opacity:1;marker:none;visibility:visible;display:inline;overflow:visible;enable-background:accumulate"
       d="m 617.6399,659.31132 c -21.79504,-20.07438 -93.89342,24.28571 -93.89342,24.28571 l 7.85714,41.01525 c 0,0 60.0839,42.38096 81.03628,21.42858 5.95238,-5.95238 -22.14286,-10.40731 -22.14286,-18.82524 0,-8.41794 23.15928,-9.98097 27.14286,-17.39667 11.42857,-21.27508 -18.57143,-15.40731 -18.57143,-23.82525 0,-8.41793 36.66667,-10.01571 18.57143,-26.68238 z"
       id="path3899"
       inkscape:connector-curvature="0"
       sodipodi:nodetypes="sccsssss" />
    <path
       inkscape:export-ydpi="17"
       inkscape:export-xdpi="17"
       inkscape:export-filename="C:\gdx\seesawcircus\android\assets\caramelor.png"
       sodipodi:nodetypes="cccc"
       inkscape:connector-curvature="0"
       id="path3901"
       d="m 532.61378,714.01545 -1.01016,10.59683 c 0,0 60.0839,42.38096 81.03628,21.42858 -38.35164,-16.42951 -49.44195,-6.13299 -80.02612,-32.02541 z"
       style="color:#000000;fill:#5d186c;fill-opacity:0.4278075;fill-rule:nonzero;stroke:none;stroke-width:5;marker:none;visibility:visible;display:inline;overflow:visible;enable-background:accumulate" />
    <path
       inkscape:export-ydpi="17"
       inkscape:export-xdpi="17"
       inkscape:export-filename="C:\gdx\seesawcircus\android\assets\caramelor.png"
       style="color:#000000;fill:#5d186c;fill-opacity:0.4278075;fill-rule:nonzero;stroke:none;stroke-width:5;marker:none;visibility:visible;display:inline;overflow:visible;enable-background:accumulate"
       d="m 581.69817,715.02204 8.91973,4.97479 c 0,0 30.2735,-5.63849 28.10007,-20.5911 -12.6387,6.88572 -19.9555,3.78396 -37.0198,15.61631 z"
       id="path3903"
       inkscape:connector-curvature="0"
       sodipodi:nodetypes="cccc" />
    <path
       inkscape:export-ydpi="17"
       inkscape:export-xdpi="17"
       inkscape:export-filename="C:\gdx\seesawcircus\android\assets\caramelor.png"
       sodipodi:nodetypes="cccc"
       inkscape:connector-curvature="0"
       id="path3905"
       d="m 593.56746,677.39385 1.84866,9.0154 c 0,0 27.74812,-10.43671 25.57469,-25.38932 -12.6387,6.88572 -10.35905,4.54157 -27.42335,16.37392 z"
       style="color:#000000;fill:#5d186c;fill-opacity:0.4278075;fill-rule:nonzero;stroke:none;stroke-width:5;marker:none;visibility:visible;display:inline;overflow:visible;enable-background:accumulate" />
    <path
       inkscape:export-ydpi="17"
       inkscape:export-xdpi="17"
       inkscape:export-filename="C:\gdx\seesawcircus\android\assets\caramelor.png"
       sodipodi:nodetypes="cccc"
       inkscape:connector-curvature="0"
       id="path3907"
       d="m 532.55727,720.83285 7.32301,-7.11925 c 0,0 3.27663,-30.61929 -11.67148,-32.82353 2.97361,14.08217 -2.09546,20.20271 4.34847,39.94278 z"
       style="color:#000000;fill:#5d186c;fill-opacity:0.4278075;fill-rule:nonzero;stroke:none;stroke-width:5;marker:none;visibility:visible;display:inline;overflow:visible;enable-background:accumulate" />
    <path
       style="color:#000000;fill:#0073ff;fill-opacity:1;fill-rule:nonzero;stroke:#121212;stroke-width:5;stroke-opacity:1;marker:none;visibility:visible;display:inline;overflow:visible;enable-background:accumulate"
       d="m 211.07112,249.18938 c 21.79504,-20.07438 93.89342,24.28571 93.89342,24.28571 l -7.85714,41.01525 c 0,0 -60.0839,42.38096 -81.03628,21.42858 -5.95238,-5.95238 22.14286,-10.40731 22.14286,-18.82524 0,-8.41794 -23.15928,-9.98097 -27.14286,-17.39667 -11.42857,-21.27508 18.57143,-15.40731 18.57143,-23.82525 0,-8.41793 -36.66667,-10.01571 -18.57143,-26.68238 z"
       id="path3909"
       inkscape:connector-curvature="0"
       sodipodi:nodetypes="sccsssss"
       inkscape:export-filename="C:\gdx\seesawcircus\android\assets\carameloz.png"
       inkscape:export-xdpi="17"
       inkscape:export-ydpi="17" />
    <path
       sodipodi:type="arc"
       style="color:#000000;fill:#0073ff;fill-opacity:1;fill-rule:nonzero;stroke:#000000;stroke-width:4.36408424000000040;stroke-miterlimit:4;stroke-opacity:1;stroke-dasharray:none;marker:none;visibility:visible;display:inline;overflow:visible;enable-background:accumulate"
       id="path3911"
       sodipodi:cx="389.41382"
       sodipodi:cy="517.48639"
       sodipodi:rx="80.307129"
       sodipodi:ry="80.307129"
       d="m 469.72095,517.48639 a 80.307129,80.307129 0 1 1 -160.61426,0 80.307129,80.307129 0 1 1 160.61426,0 z"
       transform="matrix(1.2823007,0,0,1.023679,-97.189222,-235.94056)"
       inkscape:export-filename="C:\gdx\seesawcircus\android\assets\carameloz.png"
       inkscape:export-xdpi="17"
       inkscape:export-ydpi="17" />
    <path
       style="color:#000000;fill:#610a2f;fill-opacity:0.40106955;fill-rule:nonzero;stroke:none;stroke-width:3;marker:none;visibility:visible;display:inline;overflow:visible;enable-background:accumulate"
       d="m 501.2219,265.20751 c 15.93466,73.24593 -38.72499,110.2392 -95.5981,110.2392 -56.87311,0 -77.51343,-19.26362 -94.43125,-44.93778 -24.10613,-36.58307 59.86112,34.47559 114.52592,17.92792 70.04942,-21.20478 65.94005,-127.18878 75.50343,-83.22934 z"
       id="path3913"
       inkscape:connector-curvature="0"
       sodipodi:nodetypes="sssss"
       inkscape:export-filename="C:\gdx\seesawcircus\android\assets\carameloz.png"
       inkscape:export-xdpi="17"
       inkscape:export-ydpi="17" />
    <path
       sodipodi:nodetypes="sssss"
       inkscape:connector-curvature="0"
       id="path3915"
       d="m 407.47243,267.41324 c 0.0704,5.88643 -17.51087,16.92928 -28.84167,16.92928 -11.3308,0 -20.51623,-4.77228 -20.51623,-10.65916 0,-5.88692 8.26427,-9.95636 19.32687,-12.54022 9.27598,-2.16656 29.95977,0.30808 30.03103,6.2701 z"
       style="color:#000000;fill:#fffcfc;fill-opacity:0.40106955;fill-rule:nonzero;stroke:none;stroke-width:3;marker:none;visibility:visible;display:inline;overflow:visible;enable-background:accumulate"
       inkscape:export-filename="C:\gdx\seesawcircus\android\assets\carameloz.png"
       inkscape:export-xdpi="17"
       inkscape:export-ydpi="17" />
    <path
       sodipodi:nodetypes="sssss"
       inkscape:connector-curvature="0"
       id="path3917"
       d="m 311.44823,258.8326 c 20.54547,-22.91686 23.04507,-27.33354 39.87197,-34.15795 15.32305,-6.21452 39.3781,-14.17053 45.40615,-7.53046 3.54375,3.90354 -19.05687,14.4157 -40.48266,24.70787 -51.67233,24.8215 -57.15219,30.76352 -44.79546,16.98054 z"
       style="color:#000000;fill:#fbf1cb;fill-opacity:0.40106955;fill-rule:nonzero;stroke:none;stroke-width:4;marker:none;visibility:visible;display:inline;overflow:visible;enable-background:accumulate"
       inkscape:export-filename="C:\gdx\seesawcircus\android\assets\carameloz.png"
       inkscape:export-xdpi="17"
       inkscape:export-ydpi="17" />
    <path
       sodipodi:nodetypes="cccc"
       inkscape:connector-curvature="0"
       id="path3919"
       d="m 296.09724,303.89351 1.01016,10.59683 c 0,0 -60.0839,42.38096 -81.03628,21.42858 38.35164,-16.42951 49.44195,-6.13299 80.02612,-32.02541 z"
       style="color:#000000;fill:#5d186c;fill-opacity:0.4278075;fill-rule:nonzero;stroke:none;stroke-width:5;marker:none;visibility:visible;display:inline;overflow:visible;enable-background:accumulate"
       inkscape:export-filename="C:\gdx\seesawcircus\android\assets\carameloz.png"
       inkscape:export-xdpi="17"
       inkscape:export-ydpi="17" />
    <path
       style="color:#000000;fill:#5d186c;fill-opacity:0.4278075;fill-rule:nonzero;stroke:none;stroke-width:5;marker:none;visibility:visible;display:inline;overflow:visible;enable-background:accumulate"
       d="m 247.01285,304.9001 -8.91973,4.97479 c 0,0 -30.2735,-5.63849 -28.10007,-20.5911 12.6387,6.88572 19.9555,3.78396 37.0198,15.61631 z"
       id="path3921"
       inkscape:connector-curvature="0"
       sodipodi:nodetypes="cccc"
       inkscape:export-filename="C:\gdx\seesawcircus\android\assets\carameloz.png"
       inkscape:export-xdpi="17"
       inkscape:export-ydpi="17" />
    <path
       sodipodi:nodetypes="cccc"
       inkscape:connector-curvature="0"
       id="path3923"
       d="m 235.14356,267.27191 -1.84866,9.0154 c 0,0 -27.74812,-10.43671 -25.57469,-25.38932 12.6387,6.88572 10.35905,4.54157 27.42335,16.37392 z"
       style="color:#000000;fill:#5d186c;fill-opacity:0.4278075;fill-rule:nonzero;stroke:none;stroke-width:5;marker:none;visibility:visible;display:inline;overflow:visible;enable-background:accumulate"
       inkscape:export-filename="C:\gdx\seesawcircus\android\assets\carameloz.png"
       inkscape:export-xdpi="17"
       inkscape:export-ydpi="17" />
    <path
       sodipodi:nodetypes="cccc"
       inkscape:connector-curvature="0"
       id="path3925"
       d="m 296.15375,310.71091 -7.32301,-7.11925 c 0,0 -3.27663,-30.61929 11.67148,-32.82353 -2.97361,14.08217 2.09546,20.20271 -4.34847,39.94278 z"
       style="color:#000000;fill:#5d186c;fill-opacity:0.4278075;fill-rule:nonzero;stroke:none;stroke-width:5;marker:none;visibility:visible;display:inline;overflow:visible;enable-background:accumulate"
       inkscape:export-filename="C:\gdx\seesawcircus\android\assets\carameloz.png"
       inkscape:export-xdpi="17"
       inkscape:export-ydpi="17" />
    <path
       sodipodi:nodetypes="sccsssss"
       inkscape:connector-curvature="0"
       id="path3927"
       d="m 594.40639,243.12847 c -21.79504,-20.07438 -93.89342,24.28571 -93.89342,24.28571 l 7.85714,41.01525 c 0,0 60.0839,42.38096 81.03628,21.42858 5.95238,-5.95238 -22.14286,-10.40731 -22.14286,-18.82524 0,-8.41794 23.15928,-9.98097 27.14286,-17.39667 11.42857,-21.27508 -18.57143,-15.40731 -18.57143,-23.82525 0,-8.41793 36.66667,-10.01571 18.57143,-26.68238 z"
       style="color:#000000;fill:#0073ff;fill-opacity:1;fill-rule:nonzero;stroke:#121212;stroke-width:5;stroke-opacity:1;marker:none;visibility:visible;display:inline;overflow:visible;enable-background:accumulate"
       inkscape:export-filename="C:\gdx\seesawcircus\android\assets\carameloz.png"
       inkscape:export-xdpi="17"
       inkscape:export-ydpi="17" />
    <path
       style="color:#000000;fill:#5d186c;fill-opacity:0.4278075;fill-rule:nonzero;stroke:none;stroke-width:5;marker:none;visibility:visible;display:inline;overflow:visible;enable-background:accumulate"
       d="m 509.38027,297.8326 -1.01016,10.59683 c 0,0 60.0839,42.38096 81.03628,21.42858 -38.35164,-16.42951 -49.44195,-6.13299 -80.02612,-32.02541 z"
       id="path3929"
       inkscape:connector-curvature="0"
       sodipodi:nodetypes="cccc"
       inkscape:export-filename="C:\gdx\seesawcircus\android\assets\carameloz.png"
       inkscape:export-xdpi="17"
       inkscape:export-ydpi="17" />
    <path
       sodipodi:nodetypes="cccc"
       inkscape:connector-curvature="0"
       id="path3931"
       d="m 558.46466,298.83919 8.91973,4.97479 c 0,0 30.2735,-5.63849 28.10007,-20.5911 -12.6387,6.88572 -19.9555,3.78396 -37.0198,15.61631 z"
       style="color:#000000;fill:#5d186c;fill-opacity:0.4278075;fill-rule:nonzero;stroke:none;stroke-width:5;marker:none;visibility:visible;display:inline;overflow:visible;enable-background:accumulate"
       inkscape:export-filename="C:\gdx\seesawcircus\android\assets\carameloz.png"
       inkscape:export-xdpi="17"
       inkscape:export-ydpi="17" />
    <path
       style="color:#000000;fill:#5d186c;fill-opacity:0.4278075;fill-rule:nonzero;stroke:none;stroke-width:5;marker:none;visibility:visible;display:inline;overflow:visible;enable-background:accumulate"
       d="m 570.33395,261.211 1.84866,9.0154 c 0,0 27.74812,-10.43671 25.57469,-25.38932 -12.6387,6.88572 -10.35905,4.54157 -27.42335,16.37392 z"
       id="path3933"
       inkscape:connector-curvature="0"
       sodipodi:nodetypes="cccc"
       inkscape:export-filename="C:\gdx\seesawcircus\android\assets\carameloz.png"
       inkscape:export-xdpi="17"
       inkscape:export-ydpi="17" />
    <path
       style="color:#000000;fill:#5d186c;fill-opacity:0.4278075;fill-rule:nonzero;stroke:none;stroke-width:5;marker:none;visibility:visible;display:inline;overflow:visible;enable-background:accumulate"
       d="m 509.32376,304.65 7.32301,-7.11925 c 0,0 3.27663,-30.61929 -11.67148,-32.82353 2.97361,14.08217 -2.09546,20.20271 4.34847,39.94278 z"
       id="path3935"
       inkscape:connector-curvature="0"
       sodipodi:nodetypes="cccc"
       inkscape:export-filename="C:\gdx\seesawcircus\android\assets\carameloz.png"
       inkscape:export-xdpi="17"
       inkscape:export-ydpi="17" />
    <path
       inkscape:export-ydpi="17"
       inkscape:export-xdpi="17"
       inkscape:export-filename="C:\gdx\seesawcircus\android\assets\caramelov.png"
       sodipodi:nodetypes="sccsssss"
       inkscape:connector-curvature="0"
       id="path3937"
       d="m 247.43661,878.51442 c 21.79504,-20.07438 93.89342,24.28571 93.89342,24.28571 l -7.85714,41.01525 c 0,0 -60.0839,42.38096 -81.03628,21.42858 -5.95238,-5.95238 22.14286,-10.40731 22.14286,-18.82524 0,-8.41794 -23.15928,-9.98097 -27.14286,-17.39667 -11.42857,-21.27508 18.57143,-15.40731 18.57143,-23.82525 0,-8.41793 -36.66667,-10.01571 -18.57143,-26.68238 z"
       style="color:#000000;fill:#64e800;fill-opacity:1;fill-rule:nonzero;stroke:#121212;stroke-width:5;stroke-opacity:1;marker:none;visibility:visible;display:inline;overflow:visible;enable-background:accumulate" />
    <path
       inkscape:export-ydpi="17"
       inkscape:export-xdpi="17"
       inkscape:export-filename="C:\gdx\seesawcircus\android\assets\caramelov.png"
       transform="matrix(1.2823007,0,0,1.023679,-60.82373,393.38448)"
       d="m 469.72095,517.48639 a 80.307129,80.307129 0 1 1 -160.61426,0 80.307129,80.307129 0 1 1 160.61426,0 z"
       sodipodi:ry="80.307129"
       sodipodi:rx="80.307129"
       sodipodi:cy="517.48639"
       sodipodi:cx="389.41382"
       id="path3939"
       style="color:#000000;fill:#64e800;fill-opacity:1;fill-rule:nonzero;stroke:#000000;stroke-width:4.36408424000000040;stroke-miterlimit:4;stroke-opacity:1;stroke-dasharray:none;marker:none;visibility:visible;display:inline;overflow:visible;enable-background:accumulate"
       sodipodi:type="arc" />
    <path
       inkscape:export-ydpi="17"
       inkscape:export-xdpi="17"
       inkscape:export-filename="C:\gdx\seesawcircus\android\assets\caramelov.png"
       sodipodi:nodetypes="sssss"
       inkscape:connector-curvature="0"
       id="path3941"
       d="m 537.58739,894.53255 c 15.93466,73.24593 -38.72499,110.23915 -95.5981,110.23915 -56.87311,0 -77.51343,-19.26357 -94.43125,-44.93773 -24.10613,-36.58307 59.86112,34.47559 114.52592,17.92792 70.04942,-21.20478 65.94005,-127.18878 75.50343,-83.22934 z"
       style="color:#000000;fill:#610a2f;fill-opacity:0.40106955;fill-rule:nonzero;stroke:none;stroke-width:3;marker:none;visibility:visible;display:inline;overflow:visible;enable-background:accumulate" />
    <path
       inkscape:export-ydpi="17"
       inkscape:export-xdpi="17"
       inkscape:export-filename="C:\gdx\seesawcircus\android\assets\caramelov.png"
       style="color:#000000;fill:#fffcfc;fill-opacity:0.40106955;fill-rule:nonzero;stroke:none;stroke-width:3;marker:none;visibility:visible;display:inline;overflow:visible;enable-background:accumulate"
       d="m 443.83792,896.73828 c 0.0704,5.88643 -17.51087,16.92928 -28.84167,16.92928 -11.3308,0 -20.51623,-4.77228 -20.51623,-10.65916 0,-5.88692 8.26427,-9.95636 19.32687,-12.54022 9.27598,-2.16656 29.95977,0.30808 30.03103,6.2701 z"
       id="path3943"
       inkscape:connector-curvature="0"
       sodipodi:nodetypes="sssss" />
    <path
       inkscape:export-ydpi="17"
       inkscape:export-xdpi="17"
       inkscape:export-filename="C:\gdx\seesawcircus\android\assets\caramelov.png"
       style="color:#000000;fill:#fbf1cb;fill-opacity:0.40106955;fill-rule:nonzero;stroke:none;stroke-width:4;marker:none;visibility:visible;display:inline;overflow:visible;enable-background:accumulate"
       d="m 347.81372,888.15764 c 20.54547,-22.91686 23.04507,-27.33354 39.87197,-34.15795 15.32305,-6.21452 39.3781,-14.17053 45.40615,-7.53046 3.54375,3.90354 -19.05687,14.4157 -40.48266,24.70787 -51.67233,24.8215 -57.15219,30.76352 -44.79546,16.98054 z"
       id="path3945"
       inkscape:connector-curvature="0"
       sodipodi:nodetypes="sssss" />
    <path
       inkscape:export-ydpi="17"
       inkscape:export-xdpi="17"
       inkscape:export-filename="C:\gdx\seesawcircus\android\assets\caramelov.png"
       style="color:#000000;fill:#5d186c;fill-opacity:0.4278075;fill-rule:nonzero;stroke:none;stroke-width:5;marker:none;visibility:visible;display:inline;overflow:visible;enable-background:accumulate"
       d="m 332.46273,933.21855 1.01016,10.59683 c 0,0 -60.0839,42.38096 -81.03628,21.42858 38.35164,-16.42951 49.44195,-6.13299 80.02612,-32.02541 z"
       id="path3947"
       inkscape:connector-curvature="0"
       sodipodi:nodetypes="cccc" />
    <path
       inkscape:export-ydpi="17"
       inkscape:export-xdpi="17"
       inkscape:export-filename="C:\gdx\seesawcircus\android\assets\caramelov.png"
       sodipodi:nodetypes="cccc"
       inkscape:connector-curvature="0"
       id="path3949"
       d="m 283.37834,934.22514 -8.91973,4.97479 c 0,0 -30.2735,-5.63849 -28.10007,-20.5911 12.6387,6.88572 19.9555,3.78396 37.0198,15.61631 z"
       style="color:#000000;fill:#5d186c;fill-opacity:0.4278075;fill-rule:nonzero;stroke:none;stroke-width:5;marker:none;visibility:visible;display:inline;overflow:visible;enable-background:accumulate" />
    <path
       inkscape:export-ydpi="17"
       inkscape:export-xdpi="17"
       inkscape:export-filename="C:\gdx\seesawcircus\android\assets\caramelov.png"
       style="color:#000000;fill:#5d186c;fill-opacity:0.4278075;fill-rule:nonzero;stroke:none;stroke-width:5;marker:none;visibility:visible;display:inline;overflow:visible;enable-background:accumulate"
       d="m 271.50905,896.59695 -1.84866,9.0154 c 0,0 -27.74812,-10.43671 -25.57469,-25.38932 12.6387,6.88572 10.35905,4.54157 27.42335,16.37392 z"
       id="path3951"
       inkscape:connector-curvature="0"
       sodipodi:nodetypes="cccc" />
    <path
       inkscape:export-ydpi="17"
       inkscape:export-xdpi="17"
       inkscape:export-filename="C:\gdx\seesawcircus\android\assets\caramelov.png"
       style="color:#000000;fill:#5d186c;fill-opacity:0.4278075;fill-rule:nonzero;stroke:none;stroke-width:5;marker:none;visibility:visible;display:inline;overflow:visible;enable-background:accumulate"
       d="m 332.51924,940.03595 -7.32301,-7.11925 c 0,0 -3.27663,-30.61929 11.67148,-32.82353 -2.97361,14.08217 2.09546,20.20271 -4.34847,39.94278 z"
       id="path3953"
       inkscape:connector-curvature="0"
       sodipodi:nodetypes="cccc" />
    <path
       inkscape:export-ydpi="17"
       inkscape:export-xdpi="17"
       inkscape:export-filename="C:\gdx\seesawcircus\android\assets\caramelov.png"
       style="color:#000000;fill:#64e800;fill-opacity:1;fill-rule:nonzero;stroke:#121212;stroke-width:5;stroke-opacity:1;marker:none;visibility:visible;display:inline;overflow:visible;enable-background:accumulate"
       d="m 630.77188,872.45351 c -21.79504,-20.07438 -93.89342,24.28571 -93.89342,24.28571 l 7.85714,41.01525 c 0,0 60.0839,42.38096 81.03628,21.42858 5.95238,-5.95238 -22.14286,-10.40731 -22.14286,-18.82524 0,-8.41794 23.15928,-9.98097 27.14286,-17.39667 11.42857,-21.27508 -18.57143,-15.40731 -18.57143,-23.82525 0,-8.41793 36.66667,-10.01571 18.57143,-26.68238 z"
       id="path3955"
       inkscape:connector-curvature="0"
       sodipodi:nodetypes="sccsssss" />
    <path
       inkscape:export-ydpi="17"
       inkscape:export-xdpi="17"
       inkscape:export-filename="C:\gdx\seesawcircus\android\assets\caramelov.png"
       sodipodi:nodetypes="cccc"
       inkscape:connector-curvature="0"
       id="path3957"
       d="m 545.74576,927.15764 -1.01016,10.59683 c 0,0 60.0839,42.38096 81.03628,21.42858 -38.35164,-16.42951 -49.44195,-6.13299 -80.02612,-32.02541 z"
       style="color:#000000;fill:#5d186c;fill-opacity:0.4278075;fill-rule:nonzero;stroke:none;stroke-width:5;marker:none;visibility:visible;display:inline;overflow:visible;enable-background:accumulate" />
    <path
       inkscape:export-ydpi="17"
       inkscape:export-xdpi="17"
       inkscape:export-filename="C:\gdx\seesawcircus\android\assets\caramelov.png"
       style="color:#000000;fill:#5d186c;fill-opacity:0.4278075;fill-rule:nonzero;stroke:none;stroke-width:5;marker:none;visibility:visible;display:inline;overflow:visible;enable-background:accumulate"
       d="m 594.83015,928.16423 8.91973,4.97479 c 0,0 30.2735,-5.63849 28.10007,-20.5911 -12.6387,6.88572 -19.9555,3.78396 -37.0198,15.61631 z"
       id="path3959"
       inkscape:connector-curvature="0"
       sodipodi:nodetypes="cccc" />
    <path
       inkscape:export-ydpi="17"
       inkscape:export-xdpi="17"
       inkscape:export-filename="C:\gdx\seesawcircus\android\assets\caramelov.png"
       sodipodi:nodetypes="cccc"
       inkscape:connector-curvature="0"
       id="path3961"
       d="m 606.69944,890.53604 1.84866,9.0154 c 0,0 27.74812,-10.43671 25.57469,-25.38932 -12.6387,6.88572 -10.35905,4.54157 -27.42335,16.37392 z"
       style="color:#000000;fill:#5d186c;fill-opacity:0.4278075;fill-rule:nonzero;stroke:none;stroke-width:5;marker:none;visibility:visible;display:inline;overflow:visible;enable-background:accumulate" />
    <path
       inkscape:export-ydpi="17"
       inkscape:export-xdpi="17"
       inkscape:export-filename="C:\gdx\seesawcircus\android\assets\caramelov.png"
       sodipodi:nodetypes="cccc"
       inkscape:connector-curvature="0"
       id="path3963"
       d="m 545.68925,933.97504 7.32301,-7.11925 c 0,0 3.27663,-30.61929 -11.67148,-32.82353 2.97361,14.08217 -2.09546,20.20271 4.34847,39.94278 z"
       style="color:#000000;fill:#5d186c;fill-opacity:0.4278075;fill-rule:nonzero;stroke:none;stroke-width:5;marker:none;visibility:visible;display:inline;overflow:visible;enable-background:accumulate" />
  </g>
</svg>
