<?xml version="1.0" encoding="UTF-8" standalone="no"?>
<!-- Created with Inkscape (http://www.inkscape.org/) -->

<svg
   xmlns:dc="http://purl.org/dc/elements/1.1/"
   xmlns:cc="http://creativecommons.org/ns#"
   xmlns:rdf="http://www.w3.org/1999/02/22-rdf-syntax-ns#"
   xmlns:svg="http://www.w3.org/2000/svg"
   xmlns="http://www.w3.org/2000/svg"
   xmlns:xlink="http://www.w3.org/1999/xlink"
   xmlns:sodipodi="http://sodipodi.sourceforge.net/DTD/sodipodi-0.dtd"
   xmlns:inkscape="http://www.inkscape.org/namespaces/inkscape"
   width="210mm"
   height="297mm"
   id="svg2"
   version="1.1"
   inkscape:version="0.48.5 r10040"
   sodipodi:docname="CORAZON.svg">
  <defs
     id="defs4">
    <linearGradient
       inkscape:collect="always"
       id="linearGradient3840">
      <stop
         style="stop-color:#ffb76e;stop-opacity:1;"
         offset="0"
         id="stop3842" />
      <stop
         style="stop-color:#ffb76e;stop-opacity:0;"
         offset="1"
         id="stop3844" />
    </linearGradient>
    <linearGradient
       id="linearGradient3820">
      <stop
         style="stop-color:#ffb76e;stop-opacity:1;"
         offset="0"
         id="stop3822" />
      <stop
         style="stop-color:#fefefe;stop-opacity:1;"
         offset="1"
         id="stop3824" />
    </linearGradient>
    <linearGradient
       id="linearGradient3784">
      <stop
         style="stop-color:#f1a75c;stop-opacity:1;"
         offset="0"
         id="stop3786" />
      <stop
         style="stop-color:#000000;stop-opacity:0"
         offset="1"
         id="stop3788" />
    </linearGradient>
    <linearGradient
       inkscape:collect="always"
       xlink:href="#linearGradient3840"
       id="linearGradient3846"
       x1="340.95551"
       y1="298.21005"
       x2="344.94427"
       y2="238.5672"
       gradientUnits="userSpaceOnUse" />
  </defs>
  <sodipodi:namedview
     id="base"
     pagecolor="#ffffff"
     bordercolor="#666666"
     borderopacity="1.0"
     inkscape:pageopacity="0.0"
     inkscape:pageshadow="2"
     inkscape:zoom="0.35"
     inkscape:cx="-624.05451"
     inkscape:cy="768.22012"
     inkscape:document-units="px"
     inkscape:current-layer="layer2"
     showgrid="false"
     inkscape:window-width="1440"
     inkscape:window-height="849"
     inkscape:window-x="-4"
     inkscape:window-y="-4"
     inkscape:window-maximized="1" />
  <metadata
     id="metadata7">
    <rdf:RDF>
      <cc:Work
         rdf:about="">
        <dc:format>image/svg+xml</dc:format>
        <dc:type
           rdf:resource="http://purl.org/dc/dcmitype/StillImage" />
        <dc:title></dc:title>
      </cc:Work>
    </rdf:RDF>
  </metadata>
  <g
     inkscape:label="Capa 1"
     inkscape:groupmode="layer"
     id="layer1"
     style="display:inline" />
  <g
     inkscape:groupmode="layer"
     id="layer2"
     inkscape:label="Fondo"
     style="display:inline">
    <g
       id="g3993">
      <path
         sodipodi:nodetypes="ssscssscs"
         inkscape:connector-curvature="0"
         id="path3882"
         d="m 154.5625,156.34375 c -25.10513,0 -45.46875,20.36361 -45.46875,45.46875 0,25.10513 44.61362,79.3125 69.71875,79.3125 1.96134,0 1.2207,0.72449 2.84375,0.10268 1.17693,0.28307 4.90305,-0.63393 6.21875,-0.63393 25.10514,0 66.6875,-53.67612 66.6875,-78.78125 0,-25.10514 -20.36361,-45.46875 -45.46875,-45.46875 -10.23897,0 -19.68179,3.38146 -27.28125,9.09375 -7.59615,-5.70349 -17.01973,-9.09375 -27.25,-9.09375 z"
         style="fill:#ff0015;fill-opacity:1;stroke:#1b1718;stroke-width:15.89999962;stroke-miterlimit:4;stroke-opacity:1;stroke-dasharray:none" />
      <path
         style="fill:#ff0004;fill-opacity:1;stroke:none;stroke-opacity:1;stroke-width:15.90000000000000000;stroke-miterlimit:4;stroke-dasharray:none"
         d="M 154.5625 156.34375 C 129.45737 156.34375 109.09375 176.70736 109.09375 201.8125 C 109.09375 226.91763 153.70737 281.125 178.8125 281.125 C 180.77384 281.125 182.5332 280.77806 184.15625 280.15625 C 185.33318 280.43932 186.5593 280.59375 187.875 280.59375 C 212.98014 280.59375 254.5625 226.91763 254.5625 201.8125 C 254.5625 176.70736 234.19889 156.34375 209.09375 156.34375 C 198.85478 156.34375 189.41196 159.72521 181.8125 165.4375 C 174.21635 159.73401 164.79277 156.34375 154.5625 156.34375 z "
         id="path3889" />
      <path
         sodipodi:nodetypes="sssss"
         inkscape:connector-curvature="0"
         id="path3893"
         d="m 130.71428,132.00504 c 0,5.12835 -11.59262,9.28571 -25.89285,9.28571 -14.300233,0 -35.535717,12.62835 -35.535717,7.5 0,-5.12836 16.94977,-30 35.535717,-26.07143 13.99109,2.95734 25.89285,4.15736 25.89285,9.28572 z"
         style="fill:#ffe217;fill-opacity:0.47311828;stroke:none"
         transform="translate(47.5,40.714286)" />
      <path
         sodipodi:nodetypes="sssss"
         inkscape:connector-curvature="0"
         id="path3895"
         d="m 140.35714,145.93361 c 0,5.12835 -19.80691,-4.64286 -35.53571,-4.64286 -14.300233,0 -25.89286,-4.15736 -25.89286,-9.28571 0,-5.12836 11.592627,-9.28572 25.89286,-9.28572 14.30023,0 35.53571,18.08593 35.53571,23.21429 z"
         style="fill:#ffe217;fill-opacity:0.51075268;stroke:none"
         transform="translate(106.78571,40.714286)" />
      <path
         sodipodi:nodetypes="sssss"
         inkscape:connector-curvature="0"
         id="path3893-6"
         d="m 248.57144,220.80112 c 0,-5.12835 -49.80691,37.14286 -64.10714,37.14286 -14.30024,0 -35.53572,-12.62835 -35.53572,-7.5 0,5.12836 16.54187,26.39498 35.53572,26.07143 26.84823,-0.45734 64.10714,-50.58593 64.10714,-55.71429 z"
         style="fill:#8b003b;fill-opacity:0.34946235;stroke:none;display:inline" />
    </g>
    <g
       id="g3986"
       transform="matrix(1.136679,0,0,1.136679,-56.486722,-12.974972)">
      <path
         sodipodi:nodetypes="ssscssscs"
         inkscape:connector-curvature="0"
         id="path3882-1"
         d="m 466.69898,102.88026 c -25.10513,0 -45.46875,20.36361 -45.46875,45.46875 0,25.10513 44.61362,79.3125 69.71875,79.3125 1.96134,0 1.2207,0.72449 2.84375,0.10268 1.17693,0.28307 4.90305,-0.63393 6.21875,-0.63393 25.10514,0 66.6875,-53.67612 66.6875,-78.78125 0,-25.10514 -20.36361,-45.46875 -45.46875,-45.46875 -10.23897,0 -19.68179,3.38146 -27.28125,9.09375 -7.59615,-5.70349 -17.01973,-9.09375 -27.25,-9.09375 z"
         style="fill:#ff0015;fill-opacity:1;stroke:#1b1718;stroke-width:15.89999962;stroke-miterlimit:4;stroke-opacity:1;stroke-dasharray:none;display:inline" />
      <path
         style="fill:#ff0004;fill-opacity:1;stroke:none;display:inline"
         d="m 466.69898,102.88026 c -25.10513,0 -45.46875,20.36361 -45.46875,45.46875 0,25.10513 44.61362,79.3125 69.71875,79.3125 1.96134,0 3.7207,-0.34694 5.34375,-0.96875 1.17693,0.28307 2.40305,0.4375 3.71875,0.4375 25.10514,0 66.6875,-53.67612 66.6875,-78.78125 0,-25.10514 -20.36361,-45.46875 -45.46875,-45.46875 -10.23897,0 -19.68179,3.38146 -27.28125,9.09375 -7.59615,-5.70349 -17.01973,-9.09375 -27.25,-9.09375 z"
         id="path3889-7"
         inkscape:connector-curvature="0" />
      <path
         sodipodi:nodetypes="sssss"
         inkscape:connector-curvature="0"
         id="path3893-4"
         d="m 490.35076,119.25583 c 0,5.12835 -11.59262,9.28571 -25.89285,9.28571 -14.30024,0 -30.47159,8.30902 -35.53572,7.5 -13.13198,-2.0979 10.88885,-28.98985 25.43419,-33.1425 13.7508,-3.925809 35.99438,11.22843 35.99438,16.35679 z"
         style="fill:#ffe217;fill-opacity:0.47311826;stroke:none;display:inline" />
      <path
         sodipodi:nodetypes="sssss"
         inkscape:connector-curvature="0"
         id="path3895-0"
         d="m 559.27933,133.1844 c 0,5.12835 -19.80691,-4.64286 -35.53571,-4.64286 -14.30024,0 -25.89286,-4.15736 -25.89286,-9.28571 0,-5.12836 11.59262,-9.28572 25.89286,-9.28572 14.30023,0 35.53571,18.08593 35.53571,23.21429 z"
         style="fill:#ffe217;fill-opacity:0.51075266;stroke:none;display:inline" />
      <path
         sodipodi:nodetypes="sssss"
         inkscape:connector-curvature="0"
         id="path3893-6-9"
         d="m 575.86021,156.39675 c 1.01015,-39.48297 -48.28948,26.58979 -73.85566,45.78268 -13.17534,9.89092 -56.09178,-14.59605 -56.09178,-7.43796 0,7.15812 34.20962,39.87228 56.09178,39.42069 30.93094,-0.63836 73.67258,-70.60963 73.85566,-77.76541 z"
         style="fill:#8b003b;fill-opacity:0.34946235;stroke:none;display:inline" />
    </g>
    <g
       id="g3949"
       transform="matrix(1.0734119,0,0,1.0734119,-12.522847,230.43564)">
      <path
         sodipodi:nodetypes="cacacccc"
         inkscape:connector-curvature="0"
         id="rect3059"
         d="m 135.71428,325.83324 c 0,0 71.82312,161.10549 140.1148,151.96542 55.84456,-7.47416 77.86611,-150.02388 77.86611,-150.02388 0,0 11.71776,144.64884 66.83732,153.63029 C 492.00725,493.0515 565.9618,320.00861 565.9618,320.00861 l -62.85714,282.35358 -298.81895,0 z"
         style="fill:#ffc411;fill-opacity:1;stroke:#000000;stroke-width:4.66318226;stroke-linecap:round;stroke-linejoin:round;stroke-miterlimit:4;stroke-opacity:1;stroke-dasharray:none" />
      <path
         sodipodi:nodetypes="sssss"
         inkscape:connector-curvature="0"
         id="rect3057"
         d="m 200.11735,593.79077 c 96.6594,-13.39649 187.58818,-14.50164 303.2344,0 9.1454,1.1468 9.11925,31.37068 0,30 -83.53017,-12.55511 -203.23381,-20.66154 -302.60266,-1.07143 -9.25573,1.82473 -9.44018,-27.70777 -0.63174,-28.92857 z"
         style="fill:#ffcc00;fill-opacity:1;stroke:#000000;stroke-width:4;stroke-miterlimit:4;stroke-opacity:1;stroke-dasharray:none" />
      <path
         style="fill:#e9d277;fill-opacity:0.5322581;stroke:none"
         d="m 202.26021,593.88256 c 102.01654,-10.76234 180.44532,-12.26406 296.09154,-0.29478 9.1454,0.94655 14.11925,12.92239 5,11.79106 -83.53017,-10.36266 -203.23381,-17.0535 -302.60266,-0.88433 -9.25573,1.50609 -7.30976,-9.68138 1.51112,-10.61195 z"
         id="path3862"
         inkscape:connector-curvature="0"
         sodipodi:nodetypes="sssss" />
      <path
         sodipodi:nodetypes="sssss"
         inkscape:connector-curvature="0"
         id="path3864"
         d="m 201.90307,612.7089 c 102.01654,-10.1931 180.44532,-11.61538 296.09154,-0.27919 9.1454,0.89648 14.11925,12.23889 5,11.1674 -83.53017,-9.81455 -203.23381,-16.1515 -302.60266,-0.83755 -9.25573,1.42642 -7.30976,-9.16931 1.51112,-10.05066 z"
         style="fill:#26001b;fill-opacity:0.48387098;stroke:none" />
      <path
         style="fill:#26001b;fill-opacity:0.25806448;stroke:none"
         d="m 304.98429,560.8532 c 91.30225,13.37833 80.80246,11.01769 196.44868,22.35388 9.1454,0.89648 32.49304,-117.58696 26.78572,-110.39424 -26.88055,33.87649 10.76969,48.87097 -90.4598,90.23388 -8.66922,3.54229 -141.54574,-3.47873 -132.7746,-2.19352 z"
         id="path3866"
         inkscape:connector-curvature="0"
         sodipodi:nodetypes="sssss" />
      <path
         sodipodi:nodetypes="sssss"
         inkscape:connector-curvature="0"
         id="path3868"
         d="m 363.55571,405.49606 c 20.58797,72.66405 12.95007,97.82068 78.94869,83.29224 5.61966,-1.23707 23.52189,-19.03682 15.00001,-15.61831 -46.16627,18.51935 -24.65476,9.18418 -50.10267,5.59102 -11.05066,-1.56032 -46.26257,-81.79401 -43.84603,-73.26495 z"
         style="fill:#26001b;fill-opacity:0.25806448;stroke:none" />
      <path
         style="fill:#26001b;fill-opacity:0.25806448;stroke:none"
         d="m 175.32941,403.59831 c 20.58797,72.66405 41.5215,84.24925 102.52012,81.14938 5.74679,-0.29204 23.52189,-19.03682 15.00001,-15.61831 -46.16627,18.51935 -23.89715,7.41641 -49.34506,3.82325 -11.05066,-1.56032 -70.59161,-77.88338 -68.17507,-69.35432 z"
         id="path3870"
         inkscape:connector-curvature="0"
         sodipodi:nodetypes="sssss" />
      <path
         sodipodi:nodetypes="sssss"
         inkscape:connector-curvature="0"
         id="path3872"
         d="m 499.93435,587.82275 c -102.01654,-10.1931 -175.76221,-12.9214 -291.40843,-1.58521 -9.1454,0.89648 -32.49304,-125.66818 -26.78572,-118.47546 26.88055,33.87649 -10.76969,48.87097 90.4598,90.23388 8.66922,3.54229 236.55523,30.70814 227.73435,29.82679 z"
         style="fill:#eded9b;fill-opacity:0.25806448;stroke:none" />
      <path
         sodipodi:nodetypes="cscsc"
         inkscape:connector-curvature="0"
         id="path3876"
         d="m 537.93452,382.26255 c -12.26423,46.07605 -42.21038,76.76098 -66.79548,94.41451 -24.58511,17.65352 -43.80918,22.27564 -34.62924,16.22609 5.52533,-4.56823 36.36699,-26.15423 60.81173,-53.67585 24.44475,-27.52163 42.49258,-60.97889 40.61299,-56.96475 z"
         style="fill:#fff4a4;fill-opacity:0.7311828;stroke:none" />
      <path
         style="fill:#fff4a4;fill-opacity:0.7311828;stroke:none"
         d="m 347.52076,369.13057 c 6.92867,60.72326 -33.94337,115.95205 -62.75487,125.22416 -26.60542,8.56215 -46.83964,3.08274 -37.6597,-2.96681 5.52533,-4.56823 46.97318,-5.2168 66.36757,-36.50326 17.37368,-28.0267 35.92659,-89.76823 34.047,-85.75409 z"
         id="path3878"
         inkscape:connector-curvature="0"
         sodipodi:nodetypes="cscsc" />
      <g
         id="g3888">
        <path
           sodipodi:type="arc"
           style="fill:#e10a00;fill-opacity:1;stroke:#580303;stroke-width:5.5999999;stroke-miterlimit:4;stroke-opacity:1;stroke-dasharray:none"
           id="path3880"
           sodipodi:cx="272.85715"
           sodipodi:cy="790.93359"
           sodipodi:rx="60"
           sodipodi:ry="60"
           d="m 332.85715,790.93359 c 0,33.13709 -26.86292,60 -60,60 -33.13709,0 -60,-26.86291 -60,-60 0,-33.13708 26.86291,-60 60,-60 33.13708,0 60,26.86292 60,60 z"
           transform="matrix(0.71428571,0,0,0.71428571,155.10205,-38.304685)" />
        <path
           transform="matrix(0.6232939,0,0,0.6232939,184.21553,35.092367)"
           style="fill:#800000;fill-opacity:1;stroke:none"
           d="m 332.85715,790.93359 c 0,33.13709 -31.72492,61.62067 -64.862,61.62067 -21.78562,0 -47.53185,-12.61911 -58.11579,-31.66099 0,0 45.07072,17.05047 66.21913,12.17769 22.64148,-5.2168 56.75866,-42.13737 56.75866,-42.13737 z"
           id="path3883"
           inkscape:connector-curvature="0"
           sodipodi:nodetypes="cscsc" />
        <path
           sodipodi:type="arc"
           style="fill:#ffe77c;fill-opacity:0.5322581;stroke:none"
           id="path3886"
           sodipodi:cx="335"
           sodipodi:cy="514.50507"
           sodipodi:rx="12.142858"
           sodipodi:ry="12.142858"
           d="m 347.14286,514.50507 c 0,6.70631 -5.43654,12.14285 -12.14286,12.14285 -6.70632,0 -12.14286,-5.43654 -12.14286,-12.14285 0,-6.70632 5.43654,-12.14286 12.14286,-12.14286 6.70632,0 12.14286,5.43654 12.14286,12.14286 z"
           transform="translate(-2.8571429,-3.5714286)" />
      </g>
      <g
         transform="matrix(0.61717148,0,0,0.61717148,19.842749,219.79857)"
         id="g3893">
        <path
           transform="matrix(0.71428571,0,0,0.71428571,155.10205,-38.304685)"
           d="m 332.85715,790.93359 c 0,33.13709 -26.86292,60 -60,60 -33.13709,0 -60,-26.86291 -60,-60 0,-33.13708 26.86291,-60 60,-60 33.13708,0 60,26.86292 60,60 z"
           sodipodi:ry="60"
           sodipodi:rx="60"
           sodipodi:cy="790.93359"
           sodipodi:cx="272.85715"
           id="path3896"
           style="fill:#57a107;fill-opacity:1;stroke:#580303;stroke-width:5.5999999;stroke-miterlimit:4;stroke-opacity:1;stroke-dasharray:none"
           sodipodi:type="arc" />
        <path
           sodipodi:nodetypes="cscsc"
           inkscape:connector-curvature="0"
           id="path3898"
           d="m 332.85715,790.93359 c 0,33.13709 -31.72492,61.62067 -64.862,61.62067 -21.78562,0 -47.53185,-12.61911 -58.11579,-31.66099 0,0 45.07072,17.05047 66.21913,12.17769 22.64148,-5.2168 56.75866,-42.13737 56.75866,-42.13737 z"
           style="fill:#338000;fill-opacity:1;stroke:none"
           transform="matrix(0.6232939,0,0,0.6232939,184.21553,35.092367)" />
        <path
           transform="translate(-2.8571429,-3.5714286)"
           d="m 347.14286,514.50507 c 0,6.70631 -5.43654,12.14285 -12.14286,12.14285 -6.70632,0 -12.14286,-5.43654 -12.14286,-12.14285 0,-6.70632 5.43654,-12.14286 12.14286,-12.14286 6.70632,0 12.14286,5.43654 12.14286,12.14286 z"
           sodipodi:ry="12.142858"
           sodipodi:rx="12.142858"
           sodipodi:cy="514.50507"
           sodipodi:cx="335"
           id="path3900"
           style="fill:#ffe77c;fill-opacity:0.5322581;stroke:none"
           sodipodi:type="arc" />
      </g>
      <g
         id="g3902"
         transform="matrix(0.61717148,0,0,0.61717148,251.16768,220.80872)">
        <path
           sodipodi:type="arc"
           style="fill:#0728a1;fill-opacity:1;stroke:#580303;stroke-width:5.5999999;stroke-miterlimit:4;stroke-opacity:1;stroke-dasharray:none"
           id="path3904"
           sodipodi:cx="272.85715"
           sodipodi:cy="790.93359"
           sodipodi:rx="60"
           sodipodi:ry="60"
           d="m 332.85715,790.93359 c 0,33.13709 -26.86292,60 -60,60 -33.13709,0 -60,-26.86291 -60,-60 0,-33.13708 26.86291,-60 60,-60 33.13708,0 60,26.86292 60,60 z"
           transform="matrix(0.71428571,0,0,0.71428571,155.10205,-38.304685)" />
        <path
           transform="matrix(0.6232939,0,0,0.6232939,184.21553,35.092367)"
           style="fill:#000580;fill-opacity:1;stroke:none"
           d="m 332.85715,790.93359 c 0,33.13709 -31.72492,61.62067 -64.862,61.62067 -21.78562,0 -47.53185,-12.61911 -58.11579,-31.66099 0,0 45.07072,17.05047 66.21913,12.17769 22.64148,-5.2168 56.75866,-42.13737 56.75866,-42.13737 z"
           id="path3906"
           inkscape:connector-curvature="0"
           sodipodi:nodetypes="cscsc" />
        <path
           sodipodi:type="arc"
           style="fill:#ffe77c;fill-opacity:0.5322581;stroke:none"
           id="path3908"
           sodipodi:cx="335"
           sodipodi:cy="514.50507"
           sodipodi:rx="12.142858"
           sodipodi:ry="12.142858"
           d="m 347.14286,514.50507 c 0,6.70631 -5.43654,12.14285 -12.14286,12.14285 -6.70632,0 -12.14286,-5.43654 -12.14286,-12.14285 0,-6.70632 5.43654,-12.14286 12.14286,-12.14286 6.70632,0 12.14286,5.43654 12.14286,12.14286 z"
           transform="translate(-2.8571429,-3.5714286)" />
      </g>
      <g
         transform="matrix(0.8198454,0,0,0.8198454,-137.96625,-82.908814)"
         id="g3912">
        <g
           id="g3928">
          <path
             sodipodi:type="arc"
             style="fill:#ffc411;fill-opacity:1;stroke:#580303;stroke-width:5.5999999;stroke-miterlimit:4;stroke-opacity:1;stroke-dasharray:none"
             id="path3914"
             sodipodi:cx="272.85715"
             sodipodi:cy="790.93359"
             sodipodi:rx="60"
             sodipodi:ry="60"
             d="m 332.85715,790.93359 c 0,33.13709 -26.86292,60 -60,60 -33.13709,0 -60,-26.86291 -60,-60 0,-33.13708 26.86291,-60 60,-60 33.13708,0 60,26.86292 60,60 z"
             transform="matrix(0.71428571,0,0,0.71428571,155.10205,-38.304685)" />
          <path
             transform="matrix(0.6232939,0,0,0.6232939,184.21553,35.092367)"
             style="fill:#ae670a;fill-opacity:1;stroke:none"
             d="m 332.85715,790.93359 c 0,33.13709 -31.72492,61.62067 -64.862,61.62067 -21.78562,0 -47.53185,-12.61911 -58.11579,-31.66099 0,0 45.07072,17.05047 66.21913,12.17769 22.64148,-5.2168 56.75866,-42.13737 56.75866,-42.13737 z"
             id="path3916"
             inkscape:connector-curvature="0"
             sodipodi:nodetypes="cscsc" />
          <path
             sodipodi:type="arc"
             style="fill:#ffe77c;fill-opacity:0.5322581;stroke:none"
             id="path3918"
             sodipodi:cx="335"
             sodipodi:cy="514.50507"
             sodipodi:rx="12.142858"
             sodipodi:ry="12.142858"
             d="m 347.14286,514.50507 c 0,6.70631 -5.43654,12.14285 -12.14286,12.14285 -6.70632,0 -12.14286,-5.43654 -12.14286,-12.14285 0,-6.70632 5.43654,-12.14286 12.14286,-12.14286 6.70632,0 12.14286,5.43654 12.14286,12.14286 z"
             transform="translate(-2.8571429,-3.5714286)" />
        </g>
        <g
           transform="translate(248.88938,-12.321257)"
           id="g3933">
          <path
             transform="matrix(0.71428571,0,0,0.71428571,155.10205,-38.304685)"
             d="m 332.85715,790.93359 c 0,33.13709 -26.86292,60 -60,60 -33.13709,0 -60,-26.86291 -60,-60 0,-33.13708 26.86291,-60 60,-60 33.13708,0 60,26.86292 60,60 z"
             sodipodi:ry="60"
             sodipodi:rx="60"
             sodipodi:cy="790.93359"
             sodipodi:cx="272.85715"
             id="path3935"
             style="fill:#ffc411;fill-opacity:1;stroke:#580303;stroke-width:5.5999999;stroke-miterlimit:4;stroke-opacity:1;stroke-dasharray:none"
             sodipodi:type="arc" />
          <path
             sodipodi:nodetypes="cscsc"
             inkscape:connector-curvature="0"
             id="path3937"
             d="m 332.85715,790.93359 c 0,33.13709 -31.72492,61.62067 -64.862,61.62067 -21.78562,0 -47.53185,-12.61911 -58.11579,-31.66099 0,0 45.07072,17.05047 66.21913,12.17769 22.64148,-5.2168 56.75866,-42.13737 56.75866,-42.13737 z"
             style="fill:#ae670a;fill-opacity:1;stroke:none"
             transform="matrix(0.6232939,0,0,0.6232939,184.21553,35.092367)" />
          <path
             transform="translate(-2.8571429,-3.5714286)"
             d="m 347.14286,514.50507 c 0,6.70631 -5.43654,12.14285 -12.14286,12.14285 -6.70632,0 -12.14286,-5.43654 -12.14286,-12.14285 0,-6.70632 5.43654,-12.14286 12.14286,-12.14286 6.70632,0 12.14286,5.43654 12.14286,12.14286 z"
             sodipodi:ry="12.142858"
             sodipodi:rx="12.142858"
             sodipodi:cy="514.50507"
             sodipodi:cx="335"
             id="path3939"
             style="fill:#ffe77c;fill-opacity:0.5322581;stroke:none"
             sodipodi:type="arc" />
        </g>
        <g
           id="g3941"
           transform="translate(494.08238,-9.8570057)">
          <path
             sodipodi:type="arc"
             style="fill:#ffc411;fill-opacity:1;stroke:#580303;stroke-width:5.5999999;stroke-miterlimit:4;stroke-opacity:1;stroke-dasharray:none"
             id="path3943"
             sodipodi:cx="272.85715"
             sodipodi:cy="790.93359"
             sodipodi:rx="60"
             sodipodi:ry="60"
             d="m 332.85715,790.93359 c 0,33.13709 -26.86292,60 -60,60 -33.13709,0 -60,-26.86291 -60,-60 0,-33.13708 26.86291,-60 60,-60 33.13708,0 60,26.86292 60,60 z"
             transform="matrix(0.71428571,0,0,0.71428571,155.10205,-38.304685)" />
          <path
             transform="matrix(0.6232939,0,0,0.6232939,184.21553,35.092367)"
             style="fill:#ae670a;fill-opacity:1;stroke:none"
             d="m 332.85715,790.93359 c 0,33.13709 -31.72492,61.62067 -64.862,61.62067 -21.78562,0 -47.53185,-12.61911 -58.11579,-31.66099 0,0 45.07072,17.05047 66.21913,12.17769 22.64148,-5.2168 56.75866,-42.13737 56.75866,-42.13737 z"
             id="path3945"
             inkscape:connector-curvature="0"
             sodipodi:nodetypes="cscsc" />
          <path
             sodipodi:type="arc"
             style="fill:#ffe77c;fill-opacity:0.5322581;stroke:none"
             id="path3947"
             sodipodi:cx="335"
             sodipodi:cy="514.50507"
             sodipodi:rx="12.142858"
             sodipodi:ry="12.142858"
             d="m 347.14286,514.50507 c 0,6.70631 -5.43654,12.14285 -12.14286,12.14285 -6.70632,0 -12.14286,-5.43654 -12.14286,-12.14285 0,-6.70632 5.43654,-12.14286 12.14286,-12.14286 6.70632,0 12.14286,5.43654 12.14286,12.14286 z"
             transform="translate(-2.8571429,-3.5714286)" />
        </g>
      </g>
    </g>
    <flowRoot
       xml:space="preserve"
       id="flowRoot4552"
       style="fill:black;stroke:none;stroke-opacity:1;stroke-width:1px;stroke-linejoin:miter;stroke-linecap:butt;fill-opacity:1;font-family:Sans;font-style:normal;font-weight:normal;font-size:40px;line-height:125%;letter-spacing:0px;word-spacing:0px"><flowRegion
         id="flowRegion4554"><rect
           id="rect4556"
           width="256.57874"
           height="202.0305"
           x="-585.88849"
           y="484.65646" /></flowRegion><flowPara
         id="flowPara4558"></flowPara></flowRoot>    <path
       style="fill:#101c70;fill-opacity:1;stroke:#000000;stroke-width:13.34;stroke-linecap:round;stroke-linejoin:round;stroke-miterlimit:4;stroke-opacity:1;stroke-dasharray:none"
       d="M -302.4375 -229.875 C -389.25086 -229.01768 -500.06126 -163.92422 -585.4375 -196.625 C -588.65187 -199.83937 -593.02354 -201.90033 -597.875 -202.1875 C -597.91651 -202.20894 -597.95851 -202.22851 -598 -202.25 C -599.43887 -202.99534 -600.63743 -202.86939 -601.625 -202.0625 C -611.01966 -200.80117 -618.21875 -192.81343 -618.21875 -183.0625 L -618.21875 176.1875 C -663.82888 180.83782 -699.03125 210.8939 -699.03125 247.28125 C -699.03125 286.89157 -657.32104 319 -605.875 319 C -554.42896 319 -512.71875 286.89157 -512.71875 247.28125 C -512.71875 214.64216 -541.0606 187.12226 -579.8125 178.4375 L -579.8125 -9.53125 C -574.5815 -4.3220062 -568.76126 -0.73402334 -563.53125 -1.03125 C -463.98462 -6.6885813 -354.05176 -89.620668 -248.5 -112.09375 L -248.5 115.875 C -259.07128 112.66786 -270.57444 110.90625 -282.625 110.90625 C -334.07104 110.90625 -375.78125 143.01468 -375.78125 182.625 C -375.78125 222.23532 -334.07104 254.34375 -282.625 254.34375 C -231.17896 254.34375 -189.46875 222.23532 -189.46875 182.625 C -189.46875 165.57677 -197.22122 149.93204 -210.125 137.625 L -210.125 -118.40625 C -208.67211 -119.0226 -208.80533 -119.65387 -210.125 -120.375 L -210.125 -181.03125 C -210.125 -182.11041 -210.23668 -183.15783 -210.40625 -184.1875 C -210.10878 -185.02862 -210.45527 -186.20854 -211.34375 -187.71875 C -212.89391 -191.90778 -215.84937 -195.37583 -219.65625 -197.59375 C -220.4736 -198.43466 -221.32122 -199.32122 -222.21875 -200.21875 C -244.5997 -222.5997 -272.05792 -230.17501 -302.4375 -229.875 z M -252.0625 -187.5 C -250.49606 -187.50074 -248.93419 -187.48927 -247.375 -187.4375 C -248.08084 -185.43371 -248.5 -183.28244 -248.5 -181.03125 L -248.5 -126.875 C -249.25714 -126.88767 -250.01922 -126.90441 -250.78125 -126.90625 C -343.96887 -127.13147 -473.60907 -47.230256 -579.8125 -44.625 L -579.8125 -98.5625 C -482.18532 -67.399846 -358.85191 -187.44989 -252.0625 -187.5 z "
       id="path4560"
       inkscape:export-filename="C:\Documents and Settings\Administrador\git\seesawcircus\android\assets\musica.png"
       inkscape:export-xdpi="4.3223357"
       inkscape:export-ydpi="4.3223357" />
    <path
       style="fill:#fdfcb3;fill-opacity:0.44086022;stroke:none"
       d="m -555.58388,188.68175 c 22.63192,-13.50524 -24.19439,8.08123 -71.72083,21.21321 -46.78355,12.92672 -69.59809,95.81542 -75.76144,55.55839 -10.10153,-65.97992 43.40595,-90.57798 91.92388,-91.92388 36.41476,-1.01015 53.07484,16.6343 55.55839,15.15228 z"
       id="path4584"
       inkscape:connector-curvature="0"
       sodipodi:nodetypes="sssss"
       inkscape:export-filename="C:\Documents and Settings\Administrador\git\seesawcircus\android\assets\musica.png"
       inkscape:export-xdpi="4.3223357"
       inkscape:export-ydpi="4.3223357" />
    <path
       sodipodi:nodetypes="sssss"
       inkscape:connector-curvature="0"
       id="path4587"
       d="m -227.01245,127.25318 c -23.23351,12.44184 -24.19439,8.08123 -71.72083,21.21321 -46.78355,12.92672 -69.59809,95.81542 -75.76144,55.55839 -10.10153,-65.97992 43.38729,-91.92388 91.92388,-91.92388 48.53659,0 91.46064,-4.07383 55.55839,15.15228 z"
       style="fill:#fdfcb3;fill-opacity:0.44086022;stroke:none"
       inkscape:export-filename="C:\Documents and Settings\Administrador\git\seesawcircus\android\assets\musica.png"
       inkscape:export-xdpi="4.3223357"
       inkscape:export-ydpi="4.3223357" />
    <path
       sodipodi:nodetypes="sssss"
       inkscape:connector-curvature="0"
       id="path4589"
       d="m -525.72082,222.32515 c -20.88492,16.07531 -4.23288,15.05544 -41.79929,46.9925 -36.97922,31.43784 -125.91248,25.1119 -88.02195,40.04254 49.9152,19.66892 98.90475,7.17072 127.69076,-23.88894 32.99284,-35.59877 10.93286,-69.92137 2.13048,-63.1461 z"
       style="fill:#5f0c4a;fill-opacity:0.44086022;stroke:none"
       inkscape:export-filename="C:\Documents and Settings\Administrador\git\seesawcircus\android\assets\musica.png"
       inkscape:export-xdpi="4.3223357"
       inkscape:export-ydpi="4.3223357" />
    <path
       style="fill:#5f0c4a;fill-opacity:0.44086022;stroke:none"
       d="m -202.47201,155.65508 c -20.88492,16.07531 -4.23288,15.05544 -41.79929,46.9925 -36.97922,31.43784 -125.91248,25.1119 -88.02195,40.04254 49.9152,19.66892 98.90475,7.17072 127.69076,-23.88894 32.99284,-35.59877 10.93286,-69.92137 2.13048,-63.1461 z"
       id="path4591"
       inkscape:connector-curvature="0"
       sodipodi:nodetypes="sssss"
       inkscape:export-filename="C:\Documents and Settings\Administrador\git\seesawcircus\android\assets\musica.png"
       inkscape:export-xdpi="4.3223357"
       inkscape:export-ydpi="4.3223357" />
    <rect
       style="fill:#5f0c4a;fill-opacity:0.44086022;stroke:none"
       id="rect4593"
       width="14.142136"
       height="321.22852"
       x="-595.98999"
       y="-157.80057"
       ry="7.0710678"
       inkscape:export-filename="C:\Documents and Settings\Administrador\git\seesawcircus\android\assets\musica.png"
       inkscape:export-xdpi="4.3223357"
       inkscape:export-ydpi="4.3223357" />
    <rect
       ry="7.0710678"
       y="-192.00217"
       x="-224.1313"
       height="306.94266"
       width="11.999269"
       id="rect4595"
       style="fill:#5f0c4a;fill-opacity:0.44086022;stroke:none"
       rx="0"
       inkscape:export-filename="C:\Documents and Settings\Administrador\git\seesawcircus\android\assets\musica.png"
       inkscape:export-xdpi="4.3223357"
       inkscape:export-ydpi="4.3223357" />
    <rect
       ry="7.0710678"
       y="-157.80057"
       x="-620.23364"
       height="321.22852"
       width="14.142136"
       id="rect4597"
       style="fill:#fdf6b9;fill-opacity:0.44086021;stroke:none"
       inkscape:export-filename="C:\Documents and Settings\Administrador\git\seesawcircus\android\assets\musica.png"
       inkscape:export-xdpi="4.3223357"
       inkscape:export-ydpi="4.3223357" />
    <rect
       style="fill:#fdf6b9;fill-opacity:0.44086022;stroke:none"
       id="rect4599"
       width="14.142136"
       height="321.22852"
       x="-248.49751"
       y="-210.32851"
       ry="7.0710678"
       inkscape:export-filename="C:\Documents and Settings\Administrador\git\seesawcircus\android\assets\musica.png"
       inkscape:export-xdpi="4.3223357"
       inkscape:export-ydpi="4.3223357" />
    <path
       sodipodi:nodetypes="sssss"
       inkscape:connector-curvature="0"
       id="path4601"
       d="m -418.60924,-207.64467 c 22.63192,-13.50524 -49.86153,62.87882 -98.86369,68.35606 -45.35498,5.06958 -107.53827,-11.13286 -98.61858,-50.87018 7.75561,-34.55135 58.40595,17.27916 104.06674,0.21898 34.12467,-12.74996 90.93198,-16.22284 93.41553,-17.70486 z"
       style="fill:#fdfcb3;fill-opacity:0.44086022;stroke:none"
       inkscape:export-filename="C:\Documents and Settings\Administrador\git\seesawcircus\android\assets\musica.png"
       inkscape:export-xdpi="4.3223357"
       inkscape:export-ydpi="4.3223357" />
    <path
       style="fill:#5d0d4b;fill-opacity:0.44086021;stroke:none"
       d="m -249.32352,-188.55563 c -7.44069,-3.35086 -9.86153,4.97833 -58.86369,-0.49891 -45.35498,-5.06958 -120.48198,7.99811 -112.90429,48.01303 2.75561,14.55135 51.8058,-20.4303 99.06674,-32.36183 26.06984,-6.58162 72.70124,-15.15229 72.70124,-15.15229 z"
       id="path4603"
       inkscape:connector-curvature="0"
       sodipodi:nodetypes="sssss"
       inkscape:export-filename="C:\Documents and Settings\Administrador\git\seesawcircus\android\assets\musica.png"
       inkscape:export-xdpi="4.3223357"
       inkscape:export-ydpi="4.3223357" />
    <path
       style="fill:#fdfcb3;fill-opacity:0.44086022;stroke:none"
       d="m -317.08891,-118.24617 c 22.63192,-13.50524 -81.40389,43.18129 -128.66319,57.244382 -44.64069,13.283866 -121.98358,57.5921853 -134.47899,18.830346 -2.34592,-7.277231 85.17499,-14.035569 142.45253,-36.146511 33.98448,-13.119081 118.2061,-38.446197 120.68965,-39.928217 z"
       id="path4605"
       inkscape:connector-curvature="0"
       sodipodi:nodetypes="sssss"
       inkscape:export-filename="C:\Documents and Settings\Administrador\git\seesawcircus\android\assets\musica.png"
       inkscape:export-xdpi="4.3223357"
       inkscape:export-ydpi="4.3223357" />
  </g>
</svg>
