<?xml version="1.0" encoding="UTF-8" standalone="no"?>
<!-- Created with Inkscape (http://www.inkscape.org/) -->

<svg
   xmlns:dc="http://purl.org/dc/elements/1.1/"
   xmlns:cc="http://creativecommons.org/ns#"
   xmlns:rdf="http://www.w3.org/1999/02/22-rdf-syntax-ns#"
   xmlns:svg="http://www.w3.org/2000/svg"
   xmlns="http://www.w3.org/2000/svg"
   xmlns:sodipodi="http://sodipodi.sourceforge.net/DTD/sodipodi-0.dtd"
   xmlns:inkscape="http://www.inkscape.org/namespaces/inkscape"
   width="210mm"
   height="297mm"
   id="svg2"
   version="1.1"
   inkscape:version="0.48.5 r10040"
   sodipodi:docname="globos.svg"
   inkscape:export-filename="C:\gdx\seesawcircus\android\assets\globov.png"
   inkscape:export-xdpi="18.410648"
   inkscape:export-ydpi="18.410648">
  <defs
     id="defs4" />
  <sodipodi:namedview
     id="base"
     pagecolor="#ffffff"
     bordercolor="#666666"
     borderopacity="1.0"
     inkscape:pageopacity="0.0"
     inkscape:pageshadow="2"
     inkscape:zoom="0.49497475"
     inkscape:cx="102.7329"
     inkscape:cy="345.08329"
     inkscape:document-units="px"
     inkscape:current-layer="layer1"
     showgrid="false"
     inkscape:window-width="1090"
     inkscape:window-height="761"
     inkscape:window-x="207"
     inkscape:window-y="207"
     inkscape:window-maximized="0" />
  <metadata
     id="metadata7">
    <rdf:RDF>
      <cc:Work
         rdf:about="">
        <dc:format>image/svg+xml</dc:format>
        <dc:type
           rdf:resource="http://purl.org/dc/dcmitype/StillImage" />
        <dc:title></dc:title>
      </cc:Work>
    </rdf:RDF>
  </metadata>
  <g
     inkscape:label="Capa 1"
     inkscape:groupmode="layer"
     id="layer1">
    <g
       id="g3774"
       transform="matrix(0.03781833,0.99928463,-0.99928463,0.03781833,882.02122,224.78193)"
       inkscape:export-filename="C:\gdx\seesawcircus\android\assets\globoz.png"
       inkscape:export-xdpi="18.410648"
       inkscape:export-ydpi="18.410648">
      <path
         d="m 421.42857,558.07648 c 0,63.90723 -43.49234,115.71428 -97.14286,115.71428 -53.65052,0 -97.14286,-51.80705 -97.14286,-115.71428 0,-63.90724 43.49234,-115.71429 97.14286,-115.71429 53.65052,0 97.14286,51.80705 97.14286,115.71429 z"
         sodipodi:ry="115.71429"
         sodipodi:rx="97.14286"
         sodipodi:cy="558.07648"
         sodipodi:cx="324.28571"
         id="path2985"
         style="color:#000000;fill:#0024f9;fill-opacity:0.99215686;fill-rule:nonzero;stroke:#000000;stroke-width:3;stroke-linecap:round;stroke-linejoin:round;stroke-miterlimit:4;stroke-opacity:1;stroke-dasharray:none;stroke-dashoffset:0;marker:none;visibility:visible;display:inline;overflow:visible;enable-background:accumulate"
         sodipodi:type="arc" />
      <path
         sodipodi:nodetypes="sssss"
         inkscape:connector-curvature="0"
         id="path2987"
         d="m 318.88657,683.27942 c 1.26738,19.81663 -2.61156,9.36679 -9.2467,8.57954 -16.18955,-1.92088 -11.14776,3.95105 -16.53411,0.92398 -7.3347,-4.12204 7.00081,-24.73553 13.68251,-24.73553 6.6817,0 11.56137,6.83675 12.0983,15.23201 z"
         style="color:#000000;fill:#0024f9;fill-opacity:0.99215686;fill-rule:nonzero;stroke:#000000;stroke-width:3;stroke-linecap:round;stroke-linejoin:round;stroke-miterlimit:4;stroke-opacity:1;stroke-dasharray:none;stroke-dashoffset:0;marker:none;visibility:visible;display:inline;overflow:visible;enable-background:accumulate" />
      <path
         style="color:#000000;fill:#0032dd;fill-opacity:0.99215686;fill-rule:nonzero;stroke:#000000;stroke-width:3;stroke-linecap:round;stroke-linejoin:round;stroke-miterlimit:4;stroke-opacity:1;stroke-dasharray:none;stroke-dashoffset:0;marker:none;visibility:visible;display:inline;overflow:visible;enable-background:accumulate"
         d="m 334.07355,674.11671 c 14.12614,13.95554 4.27945,8.73174 -1.19905,12.55676 -13.36741,9.33294 -5.69703,10.36471 -11.73265,11.68656 -8.21883,1.79996 -11.22318,-23.12786 -6.2335,-27.57175 4.9897,-4.44388 13.18068,-2.5838 19.1652,3.32843 z"
         id="path2990"
         inkscape:connector-curvature="0"
         sodipodi:nodetypes="sssss" />
      <path
         sodipodi:nodetypes="ssccs"
         inkscape:connector-curvature="0"
         id="rect3760"
         d="m 282.88826,480.74621 c 3.19673,-4.90617 19.45337,9.1572 13.80276,11.52415 -8.6095,3.6064 -14.83762,23.65843 -14.83762,23.65843 l -21.60104,-11.52415 c 0,0 18.26869,-16.95587 22.6359,-23.65843 z"
         style="color:#000000;fill:#ebebeb;fill-opacity:0.99215686;fill-rule:nonzero;stroke:#000000;stroke-width:3;stroke-linecap:round;stroke-linejoin:round;stroke-miterlimit:4;stroke-opacity:1;stroke-dashoffset:0;marker:none;visibility:visible;display:inline;overflow:visible;enable-background:accumulate" />
      <path
         style="color:#000000;fill:#ebebeb;fill-opacity:0.99215686;fill-rule:nonzero;stroke:#000000;stroke-width:3;stroke-linecap:round;stroke-linejoin:round;stroke-miterlimit:4;stroke-opacity:1;stroke-dashoffset:0;marker:none;visibility:visible;display:inline;overflow:visible;enable-background:accumulate"
         d="m 254.8132,514.67298 c 3.19673,-4.90617 27.57048,9.99403 21.91987,12.36098 -8.6095,3.6064 -8.7767,14.56706 -8.7767,14.56706 l -21.60104,-11.52415 c 0,0 4.09066,-8.70133 8.45787,-15.40389 z"
         id="path3763"
         inkscape:connector-curvature="0"
         sodipodi:nodetypes="ssccs" />
      <path
         sodipodi:nodetypes="sssss"
         inkscape:connector-curvature="0"
         id="path3765"
         d="m 273.30139,561.09279 c 0,62.32928 62.12152,109.12653 30.96665,109.12653 -31.15488,0 -74.98232,-51.95644 -74.98232,-114.28572 0,-62.32928 50.25601,-111.42857 81.41089,-111.42857 31.15487,0 -37.39522,54.25848 -37.39522,116.58776 z"
         style="color:#000000;fill:#ffde50;fill-opacity:0.3475936;fill-rule:nonzero;stroke:none;stroke-width:3;marker:none;visibility:visible;display:inline;overflow:visible;enable-background:accumulate" />
      <path
         style="color:#000000;fill:#58082a;fill-opacity:0.3475936;fill-rule:nonzero;stroke:none;stroke-width:3;marker:none;visibility:visible;display:inline;overflow:visible;enable-background:accumulate"
         d="m 378.37144,561.09279 c 0,62.32928 -62.12152,109.12653 -30.96665,109.12653 31.15488,0 74.98232,-51.95644 74.98232,-114.28572 0,-62.32928 -50.25601,-111.42857 -81.41089,-111.42857 -31.15487,0 37.39522,54.25848 37.39522,116.58776 z"
         id="path3768"
         inkscape:connector-curvature="0"
         sodipodi:nodetypes="sssss" />
      <path
         style="color:#000000;fill:#ffde50;fill-opacity:0.3475936;fill-rule:nonzero;stroke:none;stroke-width:3;marker:none;visibility:visible;display:inline;overflow:visible;enable-background:accumulate"
         d="m 301.95286,681.88252 c 0,6.90356 -0.71268,9.94394 -6.26597,9.94394 -5.5533,0 -2.8341,-5.56722 0.20597,-11.76537 3.03572,-6.18928 4.31518,-7.52034 9.86848,-9.6632 5.18095,-1.99918 -3.80848,4.58107 -3.80848,11.48463 z"
         id="path3770"
         inkscape:connector-curvature="0"
         sodipodi:nodetypes="sssss" />
      <path
         sodipodi:nodetypes="sssss"
         inkscape:connector-curvature="0"
         id="path3772"
         d="m 320.42174,682.18246 c 3.90725,5.69145 5.04048,8.60137 0.46222,11.74439 -4.57826,3.14302 -5.4874,-2.98571 -6.48909,-9.81621 -1.00026,-6.82073 -0.6988,-8.64222 2.66666,-13.55188 3.13981,-4.58045 -0.54702,5.93225 3.36021,11.6237 z"
         style="color:#000000;fill:#ffde50;fill-opacity:0.3475936;fill-rule:nonzero;stroke:none;stroke-width:3;marker:none;visibility:visible;display:inline;overflow:visible;enable-background:accumulate" />
    </g>
    <g
       inkscape:export-ydpi="18.410648"
       inkscape:export-xdpi="18.410648"
       inkscape:export-filename="C:\gdx\seesawcircus\android\assets\globov.png"
       transform="matrix(0.03781833,0.99928463,-0.99928463,0.03781833,772.92475,-64.121698)"
       id="g3785">
      <path
         sodipodi:type="arc"
         style="color:#000000;fill:#0e6000;fill-opacity:0.99215686;fill-rule:nonzero;stroke:#000000;stroke-width:3;stroke-linecap:round;stroke-linejoin:round;stroke-miterlimit:4;stroke-opacity:1;stroke-dasharray:none;stroke-dashoffset:0;marker:none;visibility:visible;display:inline;overflow:visible;enable-background:accumulate"
         id="path3787"
         sodipodi:cx="324.28571"
         sodipodi:cy="558.07648"
         sodipodi:rx="97.14286"
         sodipodi:ry="115.71429"
         d="m 421.42857,558.07648 c 0,63.90723 -43.49234,115.71428 -97.14286,115.71428 -53.65052,0 -97.14286,-51.80705 -97.14286,-115.71428 0,-63.90724 43.49234,-115.71429 97.14286,-115.71429 53.65052,0 97.14286,51.80705 97.14286,115.71429 z" />
      <path
         style="color:#000000;fill:#0e6000;fill-opacity:0.99215686;fill-rule:nonzero;stroke:#000000;stroke-width:3;stroke-linecap:round;stroke-linejoin:round;stroke-miterlimit:4;stroke-opacity:1;stroke-dasharray:none;stroke-dashoffset:0;marker:none;visibility:visible;display:inline;overflow:visible;enable-background:accumulate"
         d="m 318.88657,683.27942 c 1.26738,19.81663 -2.61156,9.36679 -9.2467,8.57954 -16.18955,-1.92088 -11.14776,3.95105 -16.53411,0.92398 -7.3347,-4.12204 7.00081,-24.73553 13.68251,-24.73553 6.6817,0 11.56137,6.83675 12.0983,15.23201 z"
         id="path3789"
         inkscape:connector-curvature="0"
         sodipodi:nodetypes="sssss" />
      <path
         sodipodi:nodetypes="sssss"
         inkscape:connector-curvature="0"
         id="path3791"
         d="m 334.07355,674.11671 c 14.12614,13.95554 4.27945,8.73174 -1.19905,12.55676 -13.36741,9.33294 -5.69703,10.36471 -11.73265,11.68656 -8.21883,1.79996 -11.22318,-23.12786 -6.2335,-27.57175 4.9897,-4.44388 13.18068,-2.5838 19.1652,3.32843 z"
         style="color:#000000;fill:#0e6000;fill-opacity:0.99215686;fill-rule:nonzero;stroke:#000000;stroke-width:3;stroke-linecap:round;stroke-linejoin:round;stroke-miterlimit:4;stroke-opacity:1;stroke-dasharray:none;stroke-dashoffset:0;marker:none;visibility:visible;display:inline;overflow:visible;enable-background:accumulate" />
      <path
         style="color:#000000;fill:#ebebeb;fill-opacity:0.99215686;fill-rule:nonzero;stroke:#000000;stroke-width:3;stroke-linecap:round;stroke-linejoin:round;stroke-miterlimit:4;stroke-opacity:1;stroke-dashoffset:0;marker:none;visibility:visible;display:inline;overflow:visible;enable-background:accumulate"
         d="m 282.88826,480.74621 c 3.19673,-4.90617 19.45337,9.1572 13.80276,11.52415 -8.6095,3.6064 -14.83762,23.65843 -14.83762,23.65843 l -21.60104,-11.52415 c 0,0 18.26869,-16.95587 22.6359,-23.65843 z"
         id="path3793"
         inkscape:connector-curvature="0"
         sodipodi:nodetypes="ssccs" />
      <path
         sodipodi:nodetypes="ssccs"
         inkscape:connector-curvature="0"
         id="path3795"
         d="m 254.8132,514.67298 c 3.19673,-4.90617 27.57048,9.99403 21.91987,12.36098 -8.6095,3.6064 -8.7767,14.56706 -8.7767,14.56706 l -21.60104,-11.52415 c 0,0 4.09066,-8.70133 8.45787,-15.40389 z"
         style="color:#000000;fill:#ebebeb;fill-opacity:0.99215686;fill-rule:nonzero;stroke:#000000;stroke-width:3;stroke-linecap:round;stroke-linejoin:round;stroke-miterlimit:4;stroke-opacity:1;stroke-dashoffset:0;marker:none;visibility:visible;display:inline;overflow:visible;enable-background:accumulate" />
      <path
         style="color:#000000;fill:#ffde50;fill-opacity:0.3475936;fill-rule:nonzero;stroke:none;stroke-width:3;marker:none;visibility:visible;display:inline;overflow:visible;enable-background:accumulate"
         d="m 273.30139,561.09279 c 0,62.32928 62.12152,109.12653 30.96665,109.12653 -31.15488,0 -74.98232,-51.95644 -74.98232,-114.28572 0,-62.32928 50.25601,-111.42857 81.41089,-111.42857 31.15487,0 -37.39522,54.25848 -37.39522,116.58776 z"
         id="path3797"
         inkscape:connector-curvature="0"
         sodipodi:nodetypes="sssss" />
      <path
         sodipodi:nodetypes="sssss"
         inkscape:connector-curvature="0"
         id="path3799"
         d="m 378.37144,561.09279 c 0,62.32928 -62.12152,109.12653 -30.96665,109.12653 31.15488,0 74.98232,-51.95644 74.98232,-114.28572 0,-62.32928 -50.25601,-111.42857 -81.41089,-111.42857 -31.15487,0 37.39522,54.25848 37.39522,116.58776 z"
         style="color:#000000;fill:#58082a;fill-opacity:0.3475936;fill-rule:nonzero;stroke:none;stroke-width:3;marker:none;visibility:visible;display:inline;overflow:visible;enable-background:accumulate" />
      <path
         sodipodi:nodetypes="sssss"
         inkscape:connector-curvature="0"
         id="path3801"
         d="m 301.95286,681.88252 c 0,6.90356 -0.71268,9.94394 -6.26597,9.94394 -5.5533,0 -2.8341,-5.56722 0.20597,-11.76537 3.03572,-6.18928 4.31518,-7.52034 9.86848,-9.6632 5.18095,-1.99918 -3.80848,4.58107 -3.80848,11.48463 z"
         style="color:#000000;fill:#ffde50;fill-opacity:0.3475936;fill-rule:nonzero;stroke:none;stroke-width:3;marker:none;visibility:visible;display:inline;overflow:visible;enable-background:accumulate" />
      <path
         style="color:#000000;fill:#ffde50;fill-opacity:0.3475936;fill-rule:nonzero;stroke:none;stroke-width:3;marker:none;visibility:visible;display:inline;overflow:visible;enable-background:accumulate"
         d="m 320.42174,682.18246 c 3.90725,5.69145 5.04048,8.60137 0.46222,11.74439 -4.57826,3.14302 -5.4874,-2.98571 -6.48909,-9.81621 -1.00026,-6.82073 -0.6988,-8.64222 2.66666,-13.55188 3.13981,-4.58045 -0.54702,5.93225 3.36021,11.6237 z"
         id="path3803"
         inkscape:connector-curvature="0"
         sodipodi:nodetypes="sssss" />
    </g>
    <g
       id="g3805"
       transform="matrix(0.03781833,0.99928463,-0.99928463,0.03781833,785.04658,455.09671)"
       inkscape:export-filename="C:\gdx\seesawcircus\android\assets\globor.png"
       inkscape:export-xdpi="18.410648"
       inkscape:export-ydpi="18.410648">
      <path
         d="m 421.42857,558.07648 c 0,63.90723 -43.49234,115.71428 -97.14286,115.71428 -53.65052,0 -97.14286,-51.80705 -97.14286,-115.71428 0,-63.90724 43.49234,-115.71429 97.14286,-115.71429 53.65052,0 97.14286,51.80705 97.14286,115.71429 z"
         sodipodi:ry="115.71429"
         sodipodi:rx="97.14286"
         sodipodi:cy="558.07648"
         sodipodi:cx="324.28571"
         id="path3807"
         style="color:#000000;fill:#dd0000;fill-opacity:0.99215686;fill-rule:nonzero;stroke:#000000;stroke-width:3;stroke-linecap:round;stroke-linejoin:round;stroke-miterlimit:4;stroke-opacity:1;stroke-dasharray:none;stroke-dashoffset:0;marker:none;visibility:visible;display:inline;overflow:visible;enable-background:accumulate"
         sodipodi:type="arc" />
      <path
         sodipodi:nodetypes="sssss"
         inkscape:connector-curvature="0"
         id="path3809"
         d="m 318.88657,683.27942 c 1.26738,19.81663 -2.61156,9.36679 -9.2467,8.57954 -16.18955,-1.92088 -11.14776,3.95105 -16.53411,0.92398 -7.3347,-4.12204 7.00081,-24.73553 13.68251,-24.73553 6.6817,0 11.56137,6.83675 12.0983,15.23201 z"
         style="color:#000000;fill:#dd0000;fill-opacity:0.99215686;fill-rule:nonzero;stroke:#000000;stroke-width:3;stroke-linecap:round;stroke-linejoin:round;stroke-miterlimit:4;stroke-opacity:1;stroke-dasharray:none;stroke-dashoffset:0;marker:none;visibility:visible;display:inline;overflow:visible;enable-background:accumulate" />
      <path
         style="color:#000000;fill:#dd0000;fill-opacity:0.99215686;fill-rule:nonzero;stroke:#000000;stroke-width:3;stroke-linecap:round;stroke-linejoin:round;stroke-miterlimit:4;stroke-opacity:1;stroke-dasharray:none;stroke-dashoffset:0;marker:none;visibility:visible;display:inline;overflow:visible;enable-background:accumulate"
         d="m 334.07355,674.11671 c 14.12614,13.95554 4.27945,8.73174 -1.19905,12.55676 -13.36741,9.33294 -5.69703,10.36471 -11.73265,11.68656 -8.21883,1.79996 -11.22318,-23.12786 -6.2335,-27.57175 4.9897,-4.44388 13.18068,-2.5838 19.1652,3.32843 z"
         id="path3811"
         inkscape:connector-curvature="0"
         sodipodi:nodetypes="sssss" />
      <path
         sodipodi:nodetypes="ssccs"
         inkscape:connector-curvature="0"
         id="path3813"
         d="m 282.88826,480.74621 c 3.19673,-4.90617 19.45337,9.1572 13.80276,11.52415 -8.6095,3.6064 -14.83762,23.65843 -14.83762,23.65843 l -21.60104,-11.52415 c 0,0 18.26869,-16.95587 22.6359,-23.65843 z"
         style="color:#000000;fill:#ebebeb;fill-opacity:0.99215686;fill-rule:nonzero;stroke:#000000;stroke-width:3;stroke-linecap:round;stroke-linejoin:round;stroke-miterlimit:4;stroke-opacity:1;stroke-dashoffset:0;marker:none;visibility:visible;display:inline;overflow:visible;enable-background:accumulate" />
      <path
         style="color:#000000;fill:#ebebeb;fill-opacity:0.99215686;fill-rule:nonzero;stroke:#000000;stroke-width:3;stroke-linecap:round;stroke-linejoin:round;stroke-miterlimit:4;stroke-opacity:1;stroke-dashoffset:0;marker:none;visibility:visible;display:inline;overflow:visible;enable-background:accumulate"
         d="m 254.8132,514.67298 c 3.19673,-4.90617 27.57048,9.99403 21.91987,12.36098 -8.6095,3.6064 -8.7767,14.56706 -8.7767,14.56706 l -21.60104,-11.52415 c 0,0 4.09066,-8.70133 8.45787,-15.40389 z"
         id="path3815"
         inkscape:connector-curvature="0"
         sodipodi:nodetypes="ssccs" />
      <path
         sodipodi:nodetypes="sssss"
         inkscape:connector-curvature="0"
         id="path3817"
         d="m 273.30139,561.09279 c 0,62.32928 62.12152,109.12653 30.96665,109.12653 -31.15488,0 -74.98232,-51.95644 -74.98232,-114.28572 0,-62.32928 50.25601,-111.42857 81.41089,-111.42857 31.15487,0 -37.39522,54.25848 -37.39522,116.58776 z"
         style="color:#000000;fill:#ffde50;fill-opacity:0.3475936;fill-rule:nonzero;stroke:none;stroke-width:3;marker:none;visibility:visible;display:inline;overflow:visible;enable-background:accumulate" />
      <path
         style="color:#000000;fill:#58082a;fill-opacity:0.3475936;fill-rule:nonzero;stroke:none;stroke-width:3;marker:none;visibility:visible;display:inline;overflow:visible;enable-background:accumulate"
         d="m 378.37144,561.09279 c 0,62.32928 -62.12152,109.12653 -30.96665,109.12653 31.15488,0 74.98232,-51.95644 74.98232,-114.28572 0,-62.32928 -50.25601,-111.42857 -81.41089,-111.42857 -31.15487,0 37.39522,54.25848 37.39522,116.58776 z"
         id="path3819"
         inkscape:connector-curvature="0"
         sodipodi:nodetypes="sssss" />
      <path
         style="color:#000000;fill:#ffde50;fill-opacity:0.3475936;fill-rule:nonzero;stroke:none;stroke-width:3;marker:none;visibility:visible;display:inline;overflow:visible;enable-background:accumulate"
         d="m 301.95286,681.88252 c 0,6.90356 -0.71268,9.94394 -6.26597,9.94394 -5.5533,0 -2.8341,-5.56722 0.20597,-11.76537 3.03572,-6.18928 4.31518,-7.52034 9.86848,-9.6632 5.18095,-1.99918 -3.80848,4.58107 -3.80848,11.48463 z"
         id="path3821"
         inkscape:connector-curvature="0"
         sodipodi:nodetypes="sssss" />
      <path
         sodipodi:nodetypes="sssss"
         inkscape:connector-curvature="0"
         id="path3823"
         d="m 320.42174,682.18246 c 3.90725,5.69145 5.04048,8.60137 0.46222,11.74439 -4.57826,3.14302 -5.4874,-2.98571 -6.48909,-9.81621 -1.00026,-6.82073 -0.6988,-8.64222 2.66666,-13.55188 3.13981,-4.58045 -0.54702,5.93225 3.36021,11.6237 z"
         style="color:#000000;fill:#ffde50;fill-opacity:0.3475936;fill-rule:nonzero;stroke:none;stroke-width:3;marker:none;visibility:visible;display:inline;overflow:visible;enable-background:accumulate" />
    </g>
    <g
       inkscape:export-ydpi="18.410648"
       inkscape:export-xdpi="18.410648"
       inkscape:export-filename="C:\gdx\seesawcircus\android\assets\globor.png"
       transform="matrix(0.03781833,0.99928463,-0.99928463,0.03781833,785.04658,455.09671)"
       id="g3825">
      <path
         sodipodi:type="arc"
         style="color:#000000;fill:#dd0000;fill-opacity:0.99215686;fill-rule:nonzero;stroke:#000000;stroke-width:3;stroke-linecap:round;stroke-linejoin:round;stroke-miterlimit:4;stroke-opacity:1;stroke-dasharray:none;stroke-dashoffset:0;marker:none;visibility:visible;display:inline;overflow:visible;enable-background:accumulate"
         id="path3827"
         sodipodi:cx="324.28571"
         sodipodi:cy="558.07648"
         sodipodi:rx="97.14286"
         sodipodi:ry="115.71429"
         d="m 421.42857,558.07648 c 0,63.90723 -43.49234,115.71428 -97.14286,115.71428 -53.65052,0 -97.14286,-51.80705 -97.14286,-115.71428 0,-63.90724 43.49234,-115.71429 97.14286,-115.71429 53.65052,0 97.14286,51.80705 97.14286,115.71429 z" />
      <path
         style="color:#000000;fill:#dd0000;fill-opacity:0.99215686;fill-rule:nonzero;stroke:#000000;stroke-width:3;stroke-linecap:round;stroke-linejoin:round;stroke-miterlimit:4;stroke-opacity:1;stroke-dasharray:none;stroke-dashoffset:0;marker:none;visibility:visible;display:inline;overflow:visible;enable-background:accumulate"
         d="m 318.88657,683.27942 c 1.26738,19.81663 -2.61156,9.36679 -9.2467,8.57954 -16.18955,-1.92088 -11.14776,3.95105 -16.53411,0.92398 -7.3347,-4.12204 7.00081,-24.73553 13.68251,-24.73553 6.6817,0 11.56137,6.83675 12.0983,15.23201 z"
         id="path3829"
         inkscape:connector-curvature="0"
         sodipodi:nodetypes="sssss" />
      <path
         sodipodi:nodetypes="sssss"
         inkscape:connector-curvature="0"
         id="path3831"
         d="m 334.07355,674.11671 c 14.12614,13.95554 4.27945,8.73174 -1.19905,12.55676 -13.36741,9.33294 -5.69703,10.36471 -11.73265,11.68656 -8.21883,1.79996 -11.22318,-23.12786 -6.2335,-27.57175 4.9897,-4.44388 13.18068,-2.5838 19.1652,3.32843 z"
         style="color:#000000;fill:#dd0000;fill-opacity:0.99215686;fill-rule:nonzero;stroke:#000000;stroke-width:3;stroke-linecap:round;stroke-linejoin:round;stroke-miterlimit:4;stroke-opacity:1;stroke-dasharray:none;stroke-dashoffset:0;marker:none;visibility:visible;display:inline;overflow:visible;enable-background:accumulate" />
      <path
         style="color:#000000;fill:#ebebeb;fill-opacity:0.99215686;fill-rule:nonzero;stroke:#000000;stroke-width:3;stroke-linecap:round;stroke-linejoin:round;stroke-miterlimit:4;stroke-opacity:1;stroke-dashoffset:0;marker:none;visibility:visible;display:inline;overflow:visible;enable-background:accumulate"
         d="m 282.88826,480.74621 c 3.19673,-4.90617 19.45337,9.1572 13.80276,11.52415 -8.6095,3.6064 -14.83762,23.65843 -14.83762,23.65843 l -21.60104,-11.52415 c 0,0 18.26869,-16.95587 22.6359,-23.65843 z"
         id="path3833"
         inkscape:connector-curvature="0"
         sodipodi:nodetypes="ssccs" />
      <path
         sodipodi:nodetypes="ssccs"
         inkscape:connector-curvature="0"
         id="path3835"
         d="m 254.8132,514.67298 c 3.19673,-4.90617 27.57048,9.99403 21.91987,12.36098 -8.6095,3.6064 -8.7767,14.56706 -8.7767,14.56706 l -21.60104,-11.52415 c 0,0 4.09066,-8.70133 8.45787,-15.40389 z"
         style="color:#000000;fill:#ebebeb;fill-opacity:0.99215686;fill-rule:nonzero;stroke:#000000;stroke-width:3;stroke-linecap:round;stroke-linejoin:round;stroke-miterlimit:4;stroke-opacity:1;stroke-dashoffset:0;marker:none;visibility:visible;display:inline;overflow:visible;enable-background:accumulate" />
      <path
         style="color:#000000;fill:#ffde50;fill-opacity:0.3475936;fill-rule:nonzero;stroke:none;stroke-width:3;marker:none;visibility:visible;display:inline;overflow:visible;enable-background:accumulate"
         d="m 273.30139,561.09279 c 0,62.32928 62.12152,109.12653 30.96665,109.12653 -31.15488,0 -74.98232,-51.95644 -74.98232,-114.28572 0,-62.32928 50.25601,-111.42857 81.41089,-111.42857 31.15487,0 -37.39522,54.25848 -37.39522,116.58776 z"
         id="path3837"
         inkscape:connector-curvature="0"
         sodipodi:nodetypes="sssss" />
      <path
         sodipodi:nodetypes="sssss"
         inkscape:connector-curvature="0"
         id="path3839"
         d="m 378.37144,561.09279 c 0,62.32928 -62.12152,109.12653 -30.96665,109.12653 31.15488,0 74.98232,-51.95644 74.98232,-114.28572 0,-62.32928 -50.25601,-111.42857 -81.41089,-111.42857 -31.15487,0 37.39522,54.25848 37.39522,116.58776 z"
         style="color:#000000;fill:#58082a;fill-opacity:0.3475936;fill-rule:nonzero;stroke:none;stroke-width:3;marker:none;visibility:visible;display:inline;overflow:visible;enable-background:accumulate" />
      <path
         sodipodi:nodetypes="sssss"
         inkscape:connector-curvature="0"
         id="path3841"
         d="m 301.95286,681.88252 c 0,6.90356 -0.71268,9.94394 -6.26597,9.94394 -5.5533,0 -2.8341,-5.56722 0.20597,-11.76537 3.03572,-6.18928 4.31518,-7.52034 9.86848,-9.6632 5.18095,-1.99918 -3.80848,4.58107 -3.80848,11.48463 z"
         style="color:#000000;fill:#ffde50;fill-opacity:0.3475936;fill-rule:nonzero;stroke:none;stroke-width:3;marker:none;visibility:visible;display:inline;overflow:visible;enable-background:accumulate" />
      <path
         style="color:#000000;fill:#ffde50;fill-opacity:0.3475936;fill-rule:nonzero;stroke:none;stroke-width:3;marker:none;visibility:visible;display:inline;overflow:visible;enable-background:accumulate"
         d="m 320.42174,682.18246 c 3.90725,5.69145 5.04048,8.60137 0.46222,11.74439 -4.57826,3.14302 -5.4874,-2.98571 -6.48909,-9.81621 -1.00026,-6.82073 -0.6988,-8.64222 2.66666,-13.55188 3.13981,-4.58045 -0.54702,5.93225 3.36021,11.6237 z"
         id="path3843"
         inkscape:connector-curvature="0"
         sodipodi:nodetypes="sssss" />
    </g>
    <g
       id="g3845"
       transform="matrix(0.03781833,0.99928463,-0.99928463,0.03781833,316.3358,202.55857)"
       inkscape:export-filename="C:\gdx\seesawcircus\android\assets\globoa.png"
       inkscape:export-xdpi="18.242367"
       inkscape:export-ydpi="18.242367">
      <path
         d="m 421.42857,558.07648 c 0,63.90723 -43.49234,115.71428 -97.14286,115.71428 -53.65052,0 -97.14286,-51.80705 -97.14286,-115.71428 0,-63.90724 43.49234,-115.71429 97.14286,-115.71429 53.65052,0 97.14286,51.80705 97.14286,115.71429 z"
         sodipodi:ry="115.71429"
         sodipodi:rx="97.14286"
         sodipodi:cy="558.07648"
         sodipodi:cx="324.28571"
         id="path3847"
         style="color:#000000;fill:#ddab00;fill-opacity:0.99215686;fill-rule:nonzero;stroke:#000000;stroke-width:3;stroke-linecap:round;stroke-linejoin:round;stroke-miterlimit:4;stroke-opacity:1;stroke-dasharray:none;stroke-dashoffset:0;marker:none;visibility:visible;display:inline;overflow:visible;enable-background:accumulate"
         sodipodi:type="arc" />
      <path
         sodipodi:nodetypes="sssss"
         inkscape:connector-curvature="0"
         id="path3849"
         d="m 318.88657,683.27942 c 1.26738,19.81663 -2.61156,9.36679 -9.2467,8.57954 -16.18955,-1.92088 -11.14776,3.95105 -16.53411,0.92398 -7.3347,-4.12204 7.00081,-24.73553 13.68251,-24.73553 6.6817,0 11.56137,6.83675 12.0983,15.23201 z"
         style="color:#000000;fill:#ddab00;fill-opacity:0.99215686;fill-rule:nonzero;stroke:#000000;stroke-width:3;stroke-linecap:round;stroke-linejoin:round;stroke-miterlimit:4;stroke-opacity:1;stroke-dasharray:none;stroke-dashoffset:0;marker:none;visibility:visible;display:inline;overflow:visible;enable-background:accumulate" />
      <path
         style="color:#000000;fill:#ddab00;fill-opacity:0.99215686;fill-rule:nonzero;stroke:#000000;stroke-width:3;stroke-linecap:round;stroke-linejoin:round;stroke-miterlimit:4;stroke-opacity:1;stroke-dasharray:none;stroke-dashoffset:0;marker:none;visibility:visible;display:inline;overflow:visible;enable-background:accumulate"
         d="m 334.07355,674.11671 c 14.12614,13.95554 4.27945,8.73174 -1.19905,12.55676 -13.36741,9.33294 -5.69703,10.36471 -11.73265,11.68656 -8.21883,1.79996 -11.22318,-23.12786 -6.2335,-27.57175 4.9897,-4.44388 13.18068,-2.5838 19.1652,3.32843 z"
         id="path3851"
         inkscape:connector-curvature="0"
         sodipodi:nodetypes="sssss" />
      <path
         sodipodi:nodetypes="ssccs"
         inkscape:connector-curvature="0"
         id="path3853"
         d="m 282.88826,480.74621 c 3.19673,-4.90617 19.45337,9.1572 13.80276,11.52415 -8.6095,3.6064 -14.83762,23.65843 -14.83762,23.65843 l -21.60104,-11.52415 c 0,0 18.26869,-16.95587 22.6359,-23.65843 z"
         style="color:#000000;fill:#ebebeb;fill-opacity:0.99215686;fill-rule:nonzero;stroke:#000000;stroke-width:3;stroke-linecap:round;stroke-linejoin:round;stroke-miterlimit:4;stroke-opacity:1;stroke-dashoffset:0;marker:none;visibility:visible;display:inline;overflow:visible;enable-background:accumulate" />
      <path
         style="color:#000000;fill:#ebebeb;fill-opacity:0.99215686;fill-rule:nonzero;stroke:#000000;stroke-width:3;stroke-linecap:round;stroke-linejoin:round;stroke-miterlimit:4;stroke-opacity:1;stroke-dashoffset:0;marker:none;visibility:visible;display:inline;overflow:visible;enable-background:accumulate"
         d="m 254.8132,514.67298 c 3.19673,-4.90617 27.57048,9.99403 21.91987,12.36098 -8.6095,3.6064 -8.7767,14.56706 -8.7767,14.56706 l -21.60104,-11.52415 c 0,0 4.09066,-8.70133 8.45787,-15.40389 z"
         id="path3855"
         inkscape:connector-curvature="0"
         sodipodi:nodetypes="ssccs" />
      <path
         sodipodi:nodetypes="sssss"
         inkscape:connector-curvature="0"
         id="path3857"
         d="m 273.30139,561.09279 c 0,62.32928 62.12152,109.12653 30.96665,109.12653 -31.15488,0 -74.98232,-51.95644 -74.98232,-114.28572 0,-62.32928 50.25601,-111.42857 81.41089,-111.42857 31.15487,0 -37.39522,54.25848 -37.39522,116.58776 z"
         style="color:#000000;fill:#ffde50;fill-opacity:0.3475936;fill-rule:nonzero;stroke:none;stroke-width:3;marker:none;visibility:visible;display:inline;overflow:visible;enable-background:accumulate" />
      <path
         style="color:#000000;fill:#58082a;fill-opacity:0.3475936;fill-rule:nonzero;stroke:none;stroke-width:3;marker:none;visibility:visible;display:inline;overflow:visible;enable-background:accumulate"
         d="m 378.37144,561.09279 c 0,62.32928 -62.12152,109.12653 -30.96665,109.12653 31.15488,0 74.98232,-51.95644 74.98232,-114.28572 0,-62.32928 -50.25601,-111.42857 -81.41089,-111.42857 -31.15487,0 37.39522,54.25848 37.39522,116.58776 z"
         id="path3859"
         inkscape:connector-curvature="0"
         sodipodi:nodetypes="sssss" />
      <path
         style="color:#000000;fill:#ffde50;fill-opacity:0.3475936;fill-rule:nonzero;stroke:none;stroke-width:3;marker:none;visibility:visible;display:inline;overflow:visible;enable-background:accumulate"
         d="m 301.95286,681.88252 c 0,6.90356 -0.71268,9.94394 -6.26597,9.94394 -5.5533,0 -2.8341,-5.56722 0.20597,-11.76537 3.03572,-6.18928 4.31518,-7.52034 9.86848,-9.6632 5.18095,-1.99918 -3.80848,4.58107 -3.80848,11.48463 z"
         id="path3861"
         inkscape:connector-curvature="0"
         sodipodi:nodetypes="sssss" />
      <path
         sodipodi:nodetypes="sssss"
         inkscape:connector-curvature="0"
         id="path3863"
         d="m 320.42174,682.18246 c 3.90725,5.69145 5.04048,8.60137 0.46222,11.74439 -4.57826,3.14302 -5.4874,-2.98571 -6.48909,-9.81621 -1.00026,-6.82073 -0.6988,-8.64222 2.66666,-13.55188 3.13981,-4.58045 -0.54702,5.93225 3.36021,11.6237 z"
         style="color:#000000;fill:#ffde50;fill-opacity:0.3475936;fill-rule:nonzero;stroke:none;stroke-width:3;marker:none;visibility:visible;display:inline;overflow:visible;enable-background:accumulate" />
    </g>
  </g>
</svg>
