<?xml version="1.0" encoding="UTF-8" standalone="no"?>
<!-- Created with Inkscape (http://www.inkscape.org/) -->

<svg
   xmlns:dc="http://purl.org/dc/elements/1.1/"
   xmlns:cc="http://creativecommons.org/ns#"
   xmlns:rdf="http://www.w3.org/1999/02/22-rdf-syntax-ns#"
   xmlns:svg="http://www.w3.org/2000/svg"
   xmlns="http://www.w3.org/2000/svg"
   xmlns:sodipodi="http://sodipodi.sourceforge.net/DTD/sodipodi-0.dtd"
   xmlns:inkscape="http://www.inkscape.org/namespaces/inkscape"
   width="210mm"
   height="297mm"
   id="svg2"
   version="1.1"
   inkscape:version="0.48.5 r10040"
   sodipodi:docname="regalo.svg">
  <defs
     id="defs4" />
  <sodipodi:namedview
     id="base"
     pagecolor="#ffffff"
     bordercolor="#666666"
     borderopacity="1.0"
     inkscape:pageopacity="0.0"
     inkscape:pageshadow="2"
     inkscape:zoom="0.24748737"
     inkscape:cx="-2219.7775"
     inkscape:cy="427.98266"
     inkscape:document-units="px"
     inkscape:current-layer="g4440"
     showgrid="false"
     inkscape:window-width="1680"
     inkscape:window-height="994"
     inkscape:window-x="-4"
     inkscape:window-y="-4"
     inkscape:window-maximized="1" />
  <metadata
     id="metadata7">
    <rdf:RDF>
      <cc:Work
         rdf:about="">
        <dc:format>image/svg+xml</dc:format>
        <dc:type
           rdf:resource="http://purl.org/dc/dcmitype/StillImage" />
        <dc:title></dc:title>
      </cc:Work>
    </rdf:RDF>
  </metadata>
  <g
     inkscape:label="Capa 1"
     inkscape:groupmode="layer"
     id="layer1">
    <g
       id="g3835"
       inkscape:export-filename="C:\gdx\seesawcircus\android\assets\regalo.png"
       inkscape:export-xdpi="6.549283"
       inkscape:export-ydpi="6.549283">
      <rect
         y="343.79077"
         x="-1122.8572"
         height="394.28571"
         width="545.71429"
         id="rect2987"
         style="color:#000000;fill:#8b0000;fill-opacity:1;fill-rule:nonzero;stroke:#000000;stroke-width:6.63800000999999980;stroke-linecap:round;stroke-linejoin:round;stroke-miterlimit:4;stroke-opacity:1;stroke-dasharray:none;stroke-dashoffset:0;marker:none;visibility:visible;display:inline;overflow:visible;enable-background:accumulate" />
      <path
         sodipodi:nodetypes="ccccc"
         inkscape:connector-curvature="0"
         id="rect2985"
         d="m -1145.7143,349.50504 574.28573,-65.71429 25.71424,214.28572 -637.14287,-8.57143 z"
         style="color:#000000;fill:#d11515;fill-opacity:1;fill-rule:nonzero;stroke:#000000;stroke-width:6.63800000999999980;stroke-linecap:round;stroke-linejoin:round;stroke-miterlimit:4;stroke-opacity:1;stroke-dashoffset:0;marker:none;visibility:visible;display:inline;overflow:visible;enable-background:accumulate" />
      <path
         sodipodi:nodetypes="ccccc"
         inkscape:connector-curvature="0"
         id="rect3758"
         d="m -939.99987,447.88756 199.9999,-1.23966 -60.9523,299.99997 -91.4286,-1.23967 z"
         style="color:#000000;fill:#d6d4ad;fill-opacity:1;fill-rule:nonzero;stroke:#000000;stroke-width:6.63800097;stroke-linecap:round;stroke-linejoin:round;stroke-miterlimit:4;stroke-opacity:1;stroke-dashoffset:0;marker:none;visibility:visible;display:inline;overflow:visible;enable-background:accumulate" />
      <rect
         y="298.07648"
         x="-971.42883"
         height="194.28572"
         width="274.28574"
         id="rect3761"
         style="color:#000000;fill:#d6d4ad;fill-opacity:1;fill-rule:nonzero;stroke:#000000;stroke-width:6.63800049;stroke-linecap:round;stroke-linejoin:round;stroke-miterlimit:4;stroke-opacity:1;stroke-dasharray:none;stroke-dashoffset:0;marker:none;visibility:visible;display:inline;overflow:visible;enable-background:accumulate" />
      <path
         style="color:#000000;fill:#edebd2;fill-opacity:1;fill-rule:nonzero;stroke:#000000;stroke-width:6.63800097000000020;stroke-linecap:round;stroke-linejoin:round;stroke-miterlimit:4;stroke-opacity:1;stroke-dashoffset:0;marker:none;visibility:visible;display:inline;overflow:visible;enable-background:accumulate"
         d="m -1023.2227,681.15007 -103.0029,-96.87161 246.88793,-157.73413 45.7879,45.41313 z"
         id="path3763"
         inkscape:connector-curvature="0"
         sodipodi:nodetypes="ccccc" />
      <path
         sodipodi:nodetypes="ccccc"
         inkscape:connector-curvature="0"
         id="path3765"
         d="m -662.26707,678.29293 103.0029,-96.87161 -246.8879,-157.73413 -45.7879,45.41313 z"
         style="color:#000000;fill:#ffffff;fill-opacity:1;fill-rule:nonzero;stroke:#000000;stroke-width:6.63800097000000020;stroke-linecap:round;stroke-linejoin:round;stroke-miterlimit:4;stroke-opacity:1;stroke-dashoffset:0;marker:none;visibility:visible;display:inline;overflow:visible;enable-background:accumulate" />
      <path
         sodipodi:nodetypes="scssscsss"
         inkscape:connector-curvature="0"
         id="path3767"
         d="m -939.65957,230.58287 c 61.2861,37.32674 68.8598,187.49341 82.5551,237.82625 -17.728,-14.64805 -26.3483,-128.9724 -121.0989,-169.44955 -108.10633,-46.18268 -90.00663,-28.50651 -129.93473,-8.75018 -41.7218,20.64383 20.239,155.5626 136.53903,172.71295 35.4957,5.23441 82.8781,-0.91615 102.9724,7.85581 -50.3076,9.11271 -154.36873,30.19778 -213.70633,-5.94218 -99.0539,-60.32943 -147.4069,-161.68772 -108.0081,-226.37598 39.3988,-64.68826 151.6276,-68.20654 250.68153,-7.87712 z"
         style="color:#000000;fill:#fffef6;fill-opacity:1;fill-rule:nonzero;stroke:#000000;stroke-width:6.63800000999999980;stroke-linecap:round;stroke-linejoin:round;stroke-miterlimit:4;stroke-opacity:1;stroke-dasharray:none;stroke-dashoffset:0;marker:none;visibility:visible;display:inline;overflow:visible;enable-background:accumulate" />
      <path
         style="color:#000000;fill:#fffef0;fill-opacity:1;fill-rule:nonzero;stroke:#000000;stroke-width:6.63800000999999980;stroke-linecap:round;stroke-linejoin:round;stroke-miterlimit:4;stroke-opacity:1;stroke-dasharray:none;stroke-dashoffset:0;marker:none;visibility:visible;display:inline;overflow:visible;enable-background:accumulate"
         d="m -758.64797,219.1543 c -61.2861,37.32674 -68.8598,187.49341 -82.5551,237.82625 17.728,-14.64805 26.3483,-128.9724 121.0989,-169.44955 108.1063,-46.18268 90.0066,-28.50651 129.9347,-8.75018 41.72184,20.64383 -20.239,155.5626 -136.539,172.71295 -35.4957,5.23441 -82.8781,-0.91615 -102.9724,7.85581 50.3076,9.11271 154.3687,30.19778 213.7063,-5.94218 99.05394,-60.32943 147.40694,-161.68772 108.00814,-226.37598 -39.3988,-64.68826 -151.62764,-68.20654 -250.68154,-7.87712 z"
         id="path3772"
         inkscape:connector-curvature="0"
         sodipodi:nodetypes="scssscsss" />
      <path
         sodipodi:nodetypes="ccccc"
         inkscape:connector-curvature="0"
         id="path3774"
         d="m -1023.7096,678.43653 -68.7502,-54.6861 242.12138,-170.33805 3.5131,28.19511 z"
         style="color:#000000;fill:#acacac;fill-opacity:0.4919786;fill-rule:nonzero;stroke:none;stroke-width:6.63800049;marker:none;visibility:visible;display:inline;overflow:visible;enable-background:accumulate" />
      <path
         style="color:#000000;fill:#acacac;fill-opacity:0.4919786;fill-rule:nonzero;stroke:none;stroke-width:6.63800049;marker:none;visibility:visible;display:inline;overflow:visible;enable-background:accumulate"
         d="m -664.04753,673.38577 68.7502,-54.6861 -242.12138,-170.33805 -3.5131,28.19511 z"
         id="path3776"
         inkscape:connector-curvature="0"
         sodipodi:nodetypes="ccccc" />
      <path
         sodipodi:nodetypes="ccccc"
         inkscape:connector-curvature="0"
         id="path3778"
         d="m -781.22522,652.17257 13.19181,-76.90946 -143.12643,33.71276 6.58842,39.30679 z"
         style="color:#000000;fill:#f2eb4a;fill-opacity:0.49197862;fill-rule:nonzero;stroke:none;stroke-width:6.63800048999999960;marker:none;visibility:visible;display:inline;overflow:visible;enable-background:accumulate" />
      <rect
         transform="matrix(0.03452345,0.99940389,-0.99940389,0.03452345,0,0)"
         ry="47.167206"
         y="790.56696"
         x="352.31125"
         height="141.07047"
         width="111.11678"
         id="rect3812"
         style="color:#000000;fill:#ffffff;fill-opacity:1;fill-rule:nonzero;stroke:#000000;stroke-width:6.63800049;stroke-opacity:1;marker:none;visibility:visible;display:inline;overflow:visible;enable-background:accumulate" />
      <path
         style="color:#000000;fill:#90907e;fill-opacity:0.36363639;fill-rule:nonzero;stroke:none;stroke-width:6.63800001;marker:none;visibility:visible;display:inline;overflow:visible;enable-background:accumulate"
         d="m -1045.4918,451.42824 c 29.835,11.68378 108.38517,14.34495 125.84679,22.07505 -43.71648,8.03038 -102.82919,24.59085 -154.39259,-7.25672 -86.0762,-53.164 -159.4089,-165.71733 -125.172,-222.72246 39.3714,28.53146 65.5643,162.58976 153.7178,207.90413 z"
         id="path3814"
         inkscape:connector-curvature="0"
         sodipodi:nodetypes="ccscc" />
      <path
         sodipodi:nodetypes="ccscc"
         inkscape:connector-curvature="0"
         id="path3816"
         d="m -655.68023,443.34702 c -29.835,11.68378 -108.3851,14.34495 -125.8468,22.07505 43.7165,8.03038 102.8292,24.59085 154.3926,-7.25672 86.07624,-53.164 159.40894,-165.71733 125.17204,-222.72246 -39.3714,28.53146 -65.5643,162.58976 -153.71784,207.90413 z"
         style="color:#000000;fill:#90907e;fill-opacity:0.36363639;fill-rule:nonzero;stroke:none;stroke-width:6.63800001;marker:none;visibility:visible;display:inline;overflow:visible;enable-background:accumulate" />
      <rect
         style="color:#000000;fill:#fbfa7d;fill-opacity:0.63101603;fill-rule:nonzero;stroke:none;stroke-width:6.64643908;marker:none;visibility:visible;display:inline;overflow:visible;enable-background:accumulate"
         id="rect3818"
         width="44.987274"
         height="101.02832"
         x="369.36487"
         y="818.66974"
         ry="33.77903"
         transform="matrix(0.06109247,0.99813211,-0.99981001,0.01949233,0,0)" />
      <path
         sodipodi:nodetypes="sssssss"
         inkscape:connector-curvature="0"
         id="rect3828"
         d="m 210.4254,956.98524 c 44.44552,-57.69454 -4.25733,78.27096 -2.01687,96.94346 l 11.00672,91.7324 c 2.24047,18.6725 -8.06961,36.93 -20.53108,36.93 -12.46148,0 -33.04134,-45.01 -33.04134,-63.7236 l 0,-33.4702 c 0,-18.7136 37.12625,-118.73303 44.58257,-128.41206 z"
         style="color:#000000;fill:#fbfa7d;fill-opacity:0.63101603;fill-rule:nonzero;stroke:none;stroke-width:6.64643908;marker:none;visibility:visible;display:inline;overflow:visible;enable-background:accumulate"
         transform="matrix(0.06109247,0.99813211,-0.99981001,0.01949233,0,0)" />
      <path
         style="color:#000000;fill:#fbfa7d;fill-opacity:0.63101603;fill-rule:nonzero;stroke:none;stroke-width:6.64643908;marker:none;visibility:visible;display:inline;overflow:visible;enable-background:accumulate"
         d="m -760.14445,217.57454 c -60.3989,43.2379 78.5162,-2.72369 97.0482,-0.12345 l 91.04258,12.77424 c 18.53207,2.60026 37.41597,-7.33468 38.17728,-19.77288 0.7613,-12.4382 -42.98288,-33.85697 -61.69292,-34.22174 l -33.46384,-0.65241 c -18.71,-0.36478 -120.9786,34.74252 -131.1113,41.99624 z"
         id="path3831"
         inkscape:connector-curvature="0"
         sodipodi:nodetypes="sssssss" />
      <rect
         transform="matrix(0.08839682,0.99608534,-0.99990961,0.01344518,0,0)"
         ry="33.775665"
         y="833.79449"
         x="450.13684"
         height="101.01826"
         width="31.091433"
         id="rect3833"
         style="color:#000000;fill:#cdccbf;fill-opacity:1;fill-rule:nonzero;stroke:none;stroke-width:6.64643908000000040;marker:none;visibility:visible;display:inline;overflow:visible;enable-background:accumulate" />
    </g>
    <g
       inkscape:export-ydpi="6.549283"
       inkscape:export-xdpi="6.549283"
       inkscape:export-filename="C:\gdx\seesawcircus\android\assets\regalo.png"
       id="g3634"
       transform="translate(-1276.8328,157.5838)">
      <g
         id="g4440"
         inkscape:export-filename="C:\gdx\seesawcircus\android\assets\regalo2.png"
         inkscape:export-xdpi="6.549283"
         inkscape:export-ydpi="6.549283">
        <g
           id="g3789"
           inkscape:export-filename="C:\gdx\seesawcircus\android\assets\regalo2.png"
           inkscape:export-xdpi="6.549283"
           inkscape:export-ydpi="6.549283">
          <rect
             style="color:#000000;fill:#bfbcbc;fill-opacity:1;fill-rule:nonzero;stroke:#000000;stroke-width:6.63800000999999980;stroke-linecap:round;stroke-linejoin:round;stroke-miterlimit:4;stroke-opacity:1;stroke-dasharray:none;stroke-dashoffset:0;marker:none;visibility:visible;display:inline;overflow:visible;enable-background:accumulate"
             id="rect3636"
             width="545.71429"
             height="394.28571"
             x="-1122.8572"
             y="343.79077" />
          <path
             style="color:#000000;fill:#2b2fff;fill-opacity:1;fill-rule:nonzero;stroke:#000000;stroke-width:6.63800000999999980;stroke-linecap:round;stroke-linejoin:round;stroke-miterlimit:4;stroke-opacity:1;stroke-dashoffset:0;marker:none;visibility:visible;display:inline;overflow:visible;enable-background:accumulate"
             d="m -1145.7143,349.50504 574.28573,-65.71429 25.71424,214.28572 -637.14287,-8.57143 z"
             id="path3638"
             inkscape:connector-curvature="0"
             sodipodi:nodetypes="ccccc" />
          <path
             style="color:#000000;fill:#b7a72e;fill-opacity:1;fill-rule:nonzero;stroke:#000000;stroke-width:6.63800097000000020;stroke-linecap:round;stroke-linejoin:round;stroke-miterlimit:4;stroke-opacity:1;stroke-dashoffset:0;marker:none;visibility:visible;display:inline;overflow:visible;enable-background:accumulate"
             d="m -939.99987,447.88756 199.9999,-1.23966 -60.9523,299.99997 -91.4286,-1.23967 z"
             id="path3640"
             inkscape:connector-curvature="0"
             sodipodi:nodetypes="ccccc" />
          <rect
             style="color:#000000;fill:#cdc200;fill-opacity:1;fill-rule:nonzero;stroke:#000000;stroke-width:6.63800048999999960;stroke-linecap:round;stroke-linejoin:round;stroke-miterlimit:4;stroke-opacity:1;stroke-dasharray:none;stroke-dashoffset:0;marker:none;visibility:visible;display:inline;overflow:visible;enable-background:accumulate"
             id="rect3642"
             width="274.28574"
             height="194.28572"
             x="-971.42883"
             y="298.07648" />
          <path
             sodipodi:nodetypes="ccccc"
             inkscape:connector-curvature="0"
             id="path3644"
             d="m -1023.2227,681.15007 -103.0029,-96.87161 246.88793,-157.73413 45.7879,45.41313 z"
             style="color:#000000;fill:#cdbb00;fill-opacity:1;fill-rule:nonzero;stroke:#000000;stroke-width:6.63800097000000020;stroke-linecap:round;stroke-linejoin:round;stroke-miterlimit:4;stroke-opacity:1;stroke-dashoffset:0;marker:none;visibility:visible;display:inline;overflow:visible;enable-background:accumulate" />
          <path
             style="color:#000000;fill:#cdbb00;fill-opacity:1;fill-rule:nonzero;stroke:#000000;stroke-width:6.63800097000000020;stroke-linecap:round;stroke-linejoin:round;stroke-miterlimit:4;stroke-opacity:1;stroke-dashoffset:0;marker:none;visibility:visible;display:inline;overflow:visible;enable-background:accumulate"
             d="m -662.26707,678.29293 103.0029,-96.87161 -246.8879,-157.73413 -45.7879,45.41313 z"
             id="path3646"
             inkscape:connector-curvature="0"
             sodipodi:nodetypes="ccccc" />
          <path
             style="color:#000000;fill:#cdb300;fill-opacity:1;fill-rule:nonzero;stroke:#000000;stroke-width:6.63800000999999980;stroke-linecap:round;stroke-linejoin:round;stroke-miterlimit:4;stroke-opacity:1;stroke-dasharray:none;stroke-dashoffset:0;marker:none;visibility:visible;display:inline;overflow:visible;enable-background:accumulate"
             d="m -939.65957,230.58287 c 61.2861,37.32674 68.8598,187.49341 82.5551,237.82625 -17.728,-14.64805 -26.3483,-128.9724 -121.0989,-169.44955 -108.10633,-46.18268 -90.00663,-28.50651 -129.93473,-8.75018 -41.7218,20.64383 20.239,155.5626 136.53903,172.71295 35.4957,5.23441 82.8781,-0.91615 102.9724,7.85581 -50.3076,9.11271 -154.36873,30.19778 -213.70633,-5.94218 -99.0539,-60.32943 -147.4069,-161.68772 -108.0081,-226.37598 39.3988,-64.68826 151.6276,-68.20654 250.68153,-7.87712 z"
             id="path3648"
             inkscape:connector-curvature="0"
             sodipodi:nodetypes="scssscsss" />
          <path
             sodipodi:nodetypes="scssscsss"
             inkscape:connector-curvature="0"
             id="path3650"
             d="m -758.64797,219.1543 c -61.2861,37.32674 -68.8598,187.49341 -82.5551,237.82625 17.728,-14.64805 26.3483,-128.9724 121.0989,-169.44955 108.1063,-46.18268 90.0066,-28.50651 129.9347,-8.75018 41.72184,20.64383 -20.239,155.5626 -136.539,172.71295 -35.4957,5.23441 -82.8781,-0.91615 -102.9724,7.85581 50.3076,9.11271 154.3687,30.19778 213.7063,-5.94218 99.05394,-60.32943 147.40694,-161.68772 108.00814,-226.37598 -39.3988,-64.68826 -151.62764,-68.20654 -250.68154,-7.87712 z"
             style="color:#000000;fill:#cdb300;fill-opacity:1;fill-rule:nonzero;stroke:#000000;stroke-width:6.63800000999999980;stroke-linecap:round;stroke-linejoin:round;stroke-miterlimit:4;stroke-opacity:1;stroke-dasharray:none;stroke-dashoffset:0;marker:none;visibility:visible;display:inline;overflow:visible;enable-background:accumulate" />
          <path
             style="color:#000000;fill:#ecc459;fill-opacity:0.49197862;fill-rule:nonzero;stroke:none;stroke-width:6.63800048999999960;marker:none;visibility:visible;display:inline;overflow:visible;enable-background:accumulate"
             d="m -1023.7096,678.43653 -68.7502,-54.6861 242.12138,-170.33805 3.5131,28.19511 z"
             id="path3652"
             inkscape:connector-curvature="0"
             sodipodi:nodetypes="ccccc" />
          <path
             sodipodi:nodetypes="ccccc"
             inkscape:connector-curvature="0"
             id="path3654"
             d="m -664.04753,673.38577 68.7502,-54.6861 -242.12138,-170.33805 -3.5131,28.19511 z"
             style="color:#000000;fill:#acacac;fill-opacity:0.4919786;fill-rule:nonzero;stroke:none;stroke-width:6.63800049;marker:none;visibility:visible;display:inline;overflow:visible;enable-background:accumulate" />
          <path
             style="color:#000000;fill:#f2eb4a;fill-opacity:0.4919786;fill-rule:nonzero;stroke:none;stroke-width:6.63800049;marker:none;visibility:visible;display:inline;overflow:visible;enable-background:accumulate"
             d="m -781.22522,652.17257 13.19181,-76.90946 -143.12643,33.71276 6.58842,39.30679 z"
             id="path3656"
             inkscape:connector-curvature="0"
             sodipodi:nodetypes="ccccc" />
          <rect
             style="color:#000000;fill:#cd8b00;fill-opacity:1;fill-rule:nonzero;stroke:#000000;stroke-width:6.63800048999999960;stroke-opacity:1;marker:none;visibility:visible;display:inline;overflow:visible;enable-background:accumulate"
             id="rect3658"
             width="111.11678"
             height="141.07047"
             x="352.31125"
             y="790.56696"
             ry="47.167206"
             transform="matrix(0.03452345,0.99940389,-0.99940389,0.03452345,0,0)" />
          <path
             sodipodi:nodetypes="ccscc"
             inkscape:connector-curvature="0"
             id="path3660"
             d="m -1045.4918,451.42824 c 29.835,11.68378 108.38517,14.34495 125.84679,22.07505 -43.71648,8.03038 -102.82919,24.59085 -154.39259,-7.25672 -86.0762,-53.164 -159.4089,-165.71733 -125.172,-222.72246 39.3714,28.53146 65.5643,162.58976 153.7178,207.90413 z"
             style="color:#000000;fill:#90907e;fill-opacity:0.36363639;fill-rule:nonzero;stroke:none;stroke-width:6.63800001;marker:none;visibility:visible;display:inline;overflow:visible;enable-background:accumulate" />
          <path
             style="color:#000000;fill:#90907e;fill-opacity:0.36363639;fill-rule:nonzero;stroke:none;stroke-width:6.63800001;marker:none;visibility:visible;display:inline;overflow:visible;enable-background:accumulate"
             d="m -655.68023,443.34702 c -29.835,11.68378 -108.3851,14.34495 -125.8468,22.07505 43.7165,8.03038 102.8292,24.59085 154.3926,-7.25672 86.07624,-53.164 159.40894,-165.71733 125.17204,-222.72246 -39.3714,28.53146 -65.5643,162.58976 -153.71784,207.90413 z"
             id="path3662"
             inkscape:connector-curvature="0"
             sodipodi:nodetypes="ccscc" />
          <rect
             transform="matrix(0.06109247,0.99813211,-0.99981001,0.01949233,0,0)"
             ry="33.77903"
             y="818.66974"
             x="369.36487"
             height="101.02832"
             width="44.987274"
             id="rect3664"
             style="color:#000000;fill:#fbfa7d;fill-opacity:0.63101603;fill-rule:nonzero;stroke:none;stroke-width:6.64643908;marker:none;visibility:visible;display:inline;overflow:visible;enable-background:accumulate" />
          <path
             transform="matrix(0.06109247,0.99813211,-0.99981001,0.01949233,0,0)"
             style="color:#000000;fill:#fbfa7d;fill-opacity:0.63101603;fill-rule:nonzero;stroke:none;stroke-width:6.64643908;marker:none;visibility:visible;display:inline;overflow:visible;enable-background:accumulate"
             d="m 210.4254,956.98524 c 44.44552,-57.69454 -4.25733,78.27096 -2.01687,96.94346 l 11.00672,91.7324 c 2.24047,18.6725 -8.06961,36.93 -20.53108,36.93 -12.46148,0 -33.04134,-45.01 -33.04134,-63.7236 l 0,-33.4702 c 0,-18.7136 37.12625,-118.73303 44.58257,-128.41206 z"
             id="path3666"
             inkscape:connector-curvature="0"
             sodipodi:nodetypes="sssssss" />
          <path
             sodipodi:nodetypes="sssssss"
             inkscape:connector-curvature="0"
             id="path3668"
             d="m -760.14445,217.57454 c -60.3989,43.2379 78.5162,-2.72369 97.0482,-0.12345 l 91.04258,12.77424 c 18.53207,2.60026 37.41597,-7.33468 38.17728,-19.77288 0.7613,-12.4382 -42.98288,-33.85697 -61.69292,-34.22174 l -33.46384,-0.65241 c -18.71,-0.36478 -120.9786,34.74252 -131.1113,41.99624 z"
             style="color:#000000;fill:#fbfa7d;fill-opacity:0.63101603;fill-rule:nonzero;stroke:none;stroke-width:6.64643908;marker:none;visibility:visible;display:inline;overflow:visible;enable-background:accumulate" />
          <rect
             style="color:#000000;fill:#585300;fill-opacity:1;fill-rule:nonzero;stroke:none;stroke-width:6.64643908000000040;marker:none;visibility:visible;display:inline;overflow:visible;enable-background:accumulate"
             id="rect3670"
             width="31.091433"
             height="101.01826"
             x="450.13684"
             y="833.79449"
             ry="33.775665"
             transform="matrix(0.08839682,0.99608534,-0.99990961,0.01344518,0,0)" />
        </g>
      </g>
    </g>
  </g>
</svg>
